<?xml version="1.0" encoding="UTF-8" standalone="no"?><svg xmlns="http://www.w3.org/2000/svg" xmlns:xlink="http://www.w3.org/1999/xlink" contentScriptType="application/ecmascript" contentStyleType="text/css" height="1453px" preserveAspectRatio="none" style="width:1056px;height:1453px;" version="1.1" viewBox="0 0 1056 1453" width="1056px" zoomAndPan="magnify"><defs><filter height="300%" id="fkusri1" width="300%" x="-1" y="-1"><feGaussianBlur result="blurOut" stdDeviation="2.0"/><feColorMatrix in="blurOut" result="blurOut2" type="matrix" values="0 0 0 0 0 0 0 0 0 0 0 0 0 0 0 0 0 0 .4 0"/><feOffset dx="4.0" dy="4.0" in="blurOut2" result="blurOut3"/><feBlend in="SourceGraphic" in2="blurOut3" mode="normal"/></filter></defs><g><!--class Agenda--><rect fill="#FEFECE" filter="url(#fkusri1)" height="73.7813" style="stroke: #A80036; stroke-width: 1.5;" width="151" x="158.004" y="380.5"/><ellipse cx="208.254" cy="396.5" fill="#ADD1B2" rx="11" ry="11" style="stroke: #A80036; stroke-width: 1.0;"/><path d="M212.7384,398.7188 Q212.6759,399.625 212.3399,400.3594 Q212.004,401.0938 211.4415,401.6094 Q210.879,402.125 210.0978,402.3984 Q209.3165,402.6719 208.3634,402.6719 Q207.3009,402.6719 206.4649,402.2813 Q205.629,401.8906 205.0665,401.1797 Q204.504,400.4688 204.2071,399.4688 Q203.9103,398.4688 203.9103,397.2813 L203.9103,395.6563 Q203.9103,394.4531 204.2228,393.4531 Q204.5353,392.4531 205.1212,391.7422 Q205.7071,391.0313 206.5274,390.6328 Q207.3478,390.2344 208.379,390.2344 Q209.379,390.2344 210.1524,390.5156 Q210.9259,390.7969 211.4806,391.3203 Q212.0353,391.8438 212.3478,392.6016 Q212.6603,393.3594 212.7384,394.3125 L210.4103,394.3125 Q210.379,393.7656 210.254,393.3594 Q210.129,392.9531 209.8868,392.6875 Q209.6446,392.4219 209.2696,392.2813 Q208.8946,392.1406 208.379,392.1406 Q207.8478,392.1406 207.4493,392.375 Q207.0509,392.6094 206.7853,393.0547 Q206.5196,393.5 206.3946,394.1563 Q206.2696,394.8125 206.2696,395.6406 L206.2696,397.2813 Q206.2696,399.0625 206.7774,399.9141 Q207.2853,400.7656 208.3634,400.7656 Q209.2853,400.7656 209.8165,400.2813 Q210.3478,399.7969 210.3946,398.7188 L212.7384,398.7188 Z "/><text fill="#000000" font-family="sans-serif" font-size="12" lengthAdjust="spacingAndGlyphs" textLength="42" x="228.754" y="400.6016">Agenda</text><line style="stroke: #A80036; stroke-width: 1.5;" x1="159.004" x2="308.004" y1="412.5" y2="412.5"/><line style="stroke: #A80036; stroke-width: 1.5;" x1="159.004" x2="308.004" y1="420.5" y2="420.5"/><ellipse cx="169.004" cy="432.4453" fill="#84BE84" rx="3" ry="3" style="stroke: #038048; stroke-width: 1.0;"/><text fill="#000000" font-family="sans-serif" font-size="11" lengthAdjust="spacingAndGlyphs" text-decoration="underline" textLength="125" x="178.004" y="434.7051">getAgendaItems(): string</text><line style="stroke: #000000; stroke-width: 1.0;" x1="178.004" x2="303.004" y1="436.7051" y2="436.7051"/><rect fill="#F24D5C" height="6" style="stroke: #C82930; stroke-width: 1.0;" width="6" x="166.004" y="442.3359"/><text fill="#000000" font-family="sans-serif" font-size="11" lengthAdjust="spacingAndGlyphs" text-decoration="underline" textLength="121" x="178.004" y="447.5957">getVerjaardagen(): array</text><line style="stroke: #000000; stroke-width: 1.0;" x1="178.004" x2="299.004" y1="449.5957" y2="449.5957"/><polygon fill="#FBFB77" filter="url(#fkusri1)" points="474.004,397.5,474.004,437.9688,684.004,437.9688,684.004,407.5,674.004,397.5,474.004,397.5" style="stroke: #A80036; stroke-width: 1.0;"/><polygon fill="#FBFB77" points="474.004,397.5,474.004,413.5,309.038,417.5,474.004,421.5,474.004,437.9688,684.004,437.9688,684.004,407.5,674.004,397.5,474.004,397.5" style="stroke: #A80036; stroke-width: 1.0;"/><line style="stroke: #A80036; stroke-width: 1.0;" x1="674.004" x2="674.004" y1="397.5" y2="407.5"/><line style="stroke: #A80036; stroke-width: 1.0;" x1="684.004" x2="674.004" y1="407.5" y2="407.5"/><text fill="#000000" font-family="sans-serif" font-size="13" lengthAdjust="spacingAndGlyphs" textLength="145" x="480.004" y="414.5605">Not available in database,</text><text fill="#000000" font-family="sans-serif" font-size="13" lengthAdjust="spacingAndGlyphs" textLength="186" x="483.004" y="429.7949">constructed from Persoon model</text><!--class Groep--><rect fill="#FEFECE" filter="url(#fkusri1)" height="125.3438" style="stroke: #A80036; stroke-width: 1.5;" width="133" x="167.004" y="1198"/><ellipse cx="213.254" cy="1214" fill="#ADD1B2" rx="11" ry="11" style="stroke: #A80036; stroke-width: 1.0;"/><path d="M217.7384,1216.2188 Q217.6759,1217.125 217.3399,1217.8594 Q217.004,1218.5938 216.4415,1219.1094 Q215.879,1219.625 215.0978,1219.8984 Q214.3165,1220.1719 213.3634,1220.1719 Q212.3009,1220.1719 211.4649,1219.7813 Q210.629,1219.3906 210.0665,1218.6797 Q209.504,1217.9688 209.2071,1216.9688 Q208.9103,1215.9688 208.9103,1214.7813 L208.9103,1213.1563 Q208.9103,1211.9531 209.2228,1210.9531 Q209.5353,1209.9531 210.1212,1209.2422 Q210.7071,1208.5313 211.5274,1208.1328 Q212.3478,1207.7344 213.379,1207.7344 Q214.379,1207.7344 215.1524,1208.0156 Q215.9259,1208.2969 216.4806,1208.8203 Q217.0353,1209.3438 217.3478,1210.1016 Q217.6603,1210.8594 217.7384,1211.8125 L215.4103,1211.8125 Q215.379,1211.2656 215.254,1210.8594 Q215.129,1210.4531 214.8868,1210.1875 Q214.6446,1209.9219 214.2696,1209.7813 Q213.8946,1209.6406 213.379,1209.6406 Q212.8478,1209.6406 212.4493,1209.875 Q212.0509,1210.1094 211.7853,1210.5547 Q211.5196,1211 211.3946,1211.6563 Q211.2696,1212.3125 211.2696,1213.1406 L211.2696,1214.7813 Q211.2696,1216.5625 211.7774,1217.4141 Q212.2853,1218.2656 213.3634,1218.2656 Q214.2853,1218.2656 214.8165,1217.7813 Q215.3478,1217.2969 215.3946,1216.2188 L217.7384,1216.2188 Z "/><text fill="#000000" font-family="sans-serif" font-size="12" lengthAdjust="spacingAndGlyphs" textLength="32" x="233.754" y="1218.1016">Groep</text><line style="stroke: #A80036; stroke-width: 1.5;" x1="168.004" x2="299.004" y1="1230" y2="1230"/><ellipse cx="178.004" cy="1241.9453" fill="none" rx="3" ry="3" style="stroke: #038048; stroke-width: 1.0;"/><text fill="#000000" font-family="sans-serif" font-size="11" lengthAdjust="spacingAndGlyphs" textLength="28" x="187.004" y="1244.2051">id: int</text><ellipse cx="178.004" cy="1254.8359" fill="none" rx="3" ry="3" style="stroke: #038048; stroke-width: 1.0;"/><text fill="#000000" font-family="sans-serif" font-size="11" lengthAdjust="spacingAndGlyphs" textLength="63" x="187.004" y="1257.0957">naam: string</text><ellipse cx="178.004" cy="1267.7266" fill="none" rx="3" ry="3" style="stroke: #038048; stroke-width: 1.0;"/><text fill="#000000" font-family="sans-serif" font-size="11" lengthAdjust="spacingAndGlyphs" textLength="56" x="187.004" y="1269.9863">type: string</text><ellipse cx="178.004" cy="1280.6172" fill="none" rx="3" ry="3" style="stroke: #038048; stroke-width: 1.0;"/><text fill="#000000" font-family="sans-serif" font-size="11" lengthAdjust="spacingAndGlyphs" textLength="63" x="187.004" y="1282.877">email: string</text><ellipse cx="178.004" cy="1293.5078" fill="none" rx="3" ry="3" style="stroke: #038048; stroke-width: 1.0;"/><text fill="#000000" font-family="sans-serif" font-size="11" lengthAdjust="spacingAndGlyphs" textLength="99" x="187.004" y="1295.7676">omschrijving: string</text><line style="stroke: #A80036; stroke-width: 1.5;" x1="168.004" x2="299.004" y1="1302.4531" y2="1302.4531"/><ellipse cx="178.004" cy="1314.3984" fill="#84BE84" rx="3" ry="3" style="stroke: #038048; stroke-width: 1.0;"/><text fill="#000000" font-family="sans-serif" font-size="11" lengthAdjust="spacingAndGlyphs" textLength="107" x="187.004" y="1316.6582">personen(): Persoon[]</text><!--class Lidstatus--><rect fill="#FEFECE" filter="url(#fkusri1)" height="189.7969" style="stroke: #A80036; stroke-width: 1.5;" width="136" x="165.504" y="933.5"/><ellipse cx="204.804" cy="949.5" fill="#ADD1B2" rx="11" ry="11" style="stroke: #A80036; stroke-width: 1.0;"/><path d="M209.2884,951.7188 Q209.2259,952.625 208.8899,953.3594 Q208.554,954.0938 207.9915,954.6094 Q207.429,955.125 206.6478,955.3984 Q205.8665,955.6719 204.9134,955.6719 Q203.8509,955.6719 203.0149,955.2813 Q202.179,954.8906 201.6165,954.1797 Q201.054,953.4688 200.7571,952.4688 Q200.4603,951.4688 200.4603,950.2813 L200.4603,948.6563 Q200.4603,947.4531 200.7728,946.4531 Q201.0853,945.4531 201.6712,944.7422 Q202.2571,944.0313 203.0774,943.6328 Q203.8978,943.2344 204.929,943.2344 Q205.929,943.2344 206.7024,943.5156 Q207.4759,943.7969 208.0306,944.3203 Q208.5853,944.8438 208.8978,945.6016 Q209.2103,946.3594 209.2884,947.3125 L206.9603,947.3125 Q206.929,946.7656 206.804,946.3594 Q206.679,945.9531 206.4368,945.6875 Q206.1946,945.4219 205.8196,945.2813 Q205.4446,945.1406 204.929,945.1406 Q204.3978,945.1406 203.9993,945.375 Q203.6009,945.6094 203.3353,946.0547 Q203.0696,946.5 202.9446,947.1563 Q202.8196,947.8125 202.8196,948.6406 L202.8196,950.2813 Q202.8196,952.0625 203.3274,952.9141 Q203.8353,953.7656 204.9134,953.7656 Q205.8353,953.7656 206.3665,953.2813 Q206.8978,952.7969 206.9446,951.7188 L209.2884,951.7188 Z "/><text fill="#000000" font-family="sans-serif" font-size="12" lengthAdjust="spacingAndGlyphs" textLength="50" x="224.204" y="953.6016">Lidstatus</text><line style="stroke: #A80036; stroke-width: 1.5;" x1="166.504" x2="300.504" y1="965.5" y2="965.5"/><text fill="#000000" font-family="sans-serif" font-size="11" lengthAdjust="spacingAndGlyphs" textLength="53" x="171.504" y="979.7051">LID: int = 1</text><text fill="#000000" font-family="sans-serif" font-size="11" lengthAdjust="spacingAndGlyphs" textLength="75" x="171.504" y="992.5957">OUDLID: int = 2</text><text fill="#000000" font-family="sans-serif" font-size="11" lengthAdjust="spacingAndGlyphs" textLength="72" x="171.504" y="1005.4863">ERELID: int = 3</text><text fill="#000000" font-family="sans-serif" font-size="11" lengthAdjust="spacingAndGlyphs" textLength="111" x="171.504" y="1018.377">BEGUNSTIGER: int = 4</text><text fill="#000000" font-family="sans-serif" font-size="11" lengthAdjust="spacingAndGlyphs" textLength="60" x="171.504" y="1031.2676">ALID: int = 5</text><text fill="#000000" font-family="sans-serif" font-size="11" lengthAdjust="spacingAndGlyphs" textLength="66" x="171.504" y="1044.1582">EXLID: int = 6</text><text fill="#000000" font-family="sans-serif" font-size="11" lengthAdjust="spacingAndGlyphs" textLength="124" x="171.504" y="1057.0488">EXBEGUNSTIGER: int = 7</text><text fill="#000000" font-family="sans-serif" font-size="11" lengthAdjust="spacingAndGlyphs" textLength="94" x="171.504" y="1069.9395">ONBEKEND: int = 8</text><line style="stroke: #A80036; stroke-width: 1.0; stroke-dasharray: 1.0,2.0;" x1="166.504" x2="300.504" y1="1076.625" y2="1076.625"/><ellipse cx="176.504" cy="1088.5703" fill="none" rx="3" ry="3" style="stroke: #038048; stroke-width: 1.0;"/><text fill="#000000" font-family="sans-serif" font-size="11" lengthAdjust="spacingAndGlyphs" textLength="28" x="185.504" y="1090.8301">id: int</text><ellipse cx="176.504" cy="1101.4609" fill="none" rx="3" ry="3" style="stroke: #038048; stroke-width: 1.0;"/><text fill="#000000" font-family="sans-serif" font-size="11" lengthAdjust="spacingAndGlyphs" textLength="63" x="185.504" y="1103.7207">naam: string</text><ellipse cx="176.504" cy="1114.3516" fill="#84BE84" rx="3" ry="3" style="stroke: #038048; stroke-width: 1.0;"/><text fill="#000000" font-family="sans-serif" font-size="11" lengthAdjust="spacingAndGlyphs" text-decoration="underline" textLength="77" x="185.504" y="1116.6113">studiejaar(): int</text><line style="stroke: #000000; stroke-width: 1.0;" x1="185.504" x2="262.504" y1="1118.6113" y2="1118.6113"/><!--class Log--><rect fill="#FEFECE" filter="url(#fkusri1)" height="125.3438" style="stroke: #A80036; stroke-width: 1.5;" width="177" x="145.004" y="220"/><ellipse cx="219.254" cy="236" fill="#ADD1B2" rx="11" ry="11" style="stroke: #A80036; stroke-width: 1.0;"/><path d="M223.7384,238.2188 Q223.6759,239.125 223.3399,239.8594 Q223.004,240.5938 222.4415,241.1094 Q221.879,241.625 221.0978,241.8984 Q220.3165,242.1719 219.3634,242.1719 Q218.3009,242.1719 217.4649,241.7813 Q216.629,241.3906 216.0665,240.6797 Q215.504,239.9688 215.2071,238.9688 Q214.9103,237.9688 214.9103,236.7813 L214.9103,235.1563 Q214.9103,233.9531 215.2228,232.9531 Q215.5353,231.9531 216.1212,231.2422 Q216.7071,230.5313 217.5274,230.1328 Q218.3478,229.7344 219.379,229.7344 Q220.379,229.7344 221.1524,230.0156 Q221.9259,230.2969 222.4806,230.8203 Q223.0353,231.3438 223.3478,232.1016 Q223.6603,232.8594 223.7384,233.8125 L221.4103,233.8125 Q221.379,233.2656 221.254,232.8594 Q221.129,232.4531 220.8868,232.1875 Q220.6446,231.9219 220.2696,231.7813 Q219.8946,231.6406 219.379,231.6406 Q218.8478,231.6406 218.4493,231.875 Q218.0509,232.1094 217.7853,232.5547 Q217.5196,233 217.3946,233.6563 Q217.2696,234.3125 217.2696,235.1406 L217.2696,236.7813 Q217.2696,238.5625 217.7774,239.4141 Q218.2853,240.2656 219.3634,240.2656 Q220.2853,240.2656 220.8165,239.7813 Q221.3478,239.2969 221.3946,238.2188 L223.7384,238.2188 Z "/><text fill="#000000" font-family="sans-serif" font-size="12" lengthAdjust="spacingAndGlyphs" textLength="20" x="239.754" y="240.1016">Log</text><line style="stroke: #A80036; stroke-width: 1.5;" x1="146.004" x2="321.004" y1="252" y2="252"/><ellipse cx="156.004" cy="263.9453" fill="none" rx="3" ry="3" style="stroke: #038048; stroke-width: 1.0;"/><text fill="#000000" font-family="sans-serif" font-size="11" lengthAdjust="spacingAndGlyphs" textLength="28" x="165.004" y="266.2051">id: int</text><ellipse cx="156.004" cy="276.8359" fill="none" rx="3" ry="3" style="stroke: #038048; stroke-width: 1.0;"/><text fill="#000000" font-family="sans-serif" font-size="11" lengthAdjust="spacingAndGlyphs" textLength="73" x="165.004" y="279.0957">persoon_id: int</text><ellipse cx="156.004" cy="289.7266" fill="none" rx="3" ry="3" style="stroke: #038048; stroke-width: 1.0;"/><text fill="#000000" font-family="sans-serif" font-size="11" lengthAdjust="spacingAndGlyphs" textLength="96" x="165.004" y="291.9863">datetime: datetime</text><ellipse cx="156.004" cy="302.6172" fill="none" rx="3" ry="3" style="stroke: #038048; stroke-width: 1.0;"/><text fill="#000000" font-family="sans-serif" font-size="11" lengthAdjust="spacingAndGlyphs" textLength="56" x="165.004" y="304.877">type: string</text><ellipse cx="156.004" cy="315.5078" fill="none" rx="3" ry="3" style="stroke: #038048; stroke-width: 1.0;"/><text fill="#000000" font-family="sans-serif" font-size="11" lengthAdjust="spacingAndGlyphs" textLength="61" x="165.004" y="317.7676">value: string</text><line style="stroke: #A80036; stroke-width: 1.5;" x1="146.004" x2="321.004" y1="324.4531" y2="324.4531"/><ellipse cx="156.004" cy="336.3984" fill="#84BE84" rx="3" ry="3" style="stroke: #038048; stroke-width: 1.0;"/><text fill="#000000" font-family="sans-serif" font-size="11" lengthAdjust="spacingAndGlyphs" text-decoration="underline" textLength="151" x="165.004" y="338.6582">getLogItems(aantal: int): Log[]</text><line style="stroke: #000000; stroke-width: 1.0;" x1="165.004" x2="316.004" y1="340.6582" y2="340.6582"/><!--class Persoon--><rect fill="#FEFECE" filter="url(#fkusri1)" height="370.2656" style="stroke: #A80036; stroke-width: 1.5;" width="315" x="76.0037" y="489.5"/><ellipse cx="206.7537" cy="505.5" fill="#ADD1B2" rx="11" ry="11" style="stroke: #A80036; stroke-width: 1.0;"/><path d="M211.2381,507.7188 Q211.1756,508.625 210.8396,509.3594 Q210.5037,510.0938 209.9412,510.6094 Q209.3787,511.125 208.5974,511.3984 Q207.8162,511.6719 206.8631,511.6719 Q205.8006,511.6719 204.9646,511.2813 Q204.1287,510.8906 203.5662,510.1797 Q203.0037,509.4688 202.7068,508.4688 Q202.4099,507.4688 202.4099,506.2813 L202.4099,504.6563 Q202.4099,503.4531 202.7224,502.4531 Q203.0349,501.4531 203.6209,500.7422 Q204.2068,500.0313 205.0271,499.6328 Q205.8474,499.2344 206.8787,499.2344 Q207.8787,499.2344 208.6521,499.5156 Q209.4256,499.7969 209.9803,500.3203 Q210.5349,500.8438 210.8474,501.6016 Q211.1599,502.3594 211.2381,503.3125 L208.9099,503.3125 Q208.8787,502.7656 208.7537,502.3594 Q208.6287,501.9531 208.3865,501.6875 Q208.1443,501.4219 207.7693,501.2813 Q207.3943,501.1406 206.8787,501.1406 Q206.3474,501.1406 205.949,501.375 Q205.5506,501.6094 205.2849,502.0547 Q205.0193,502.5 204.8943,503.1563 Q204.7693,503.8125 204.7693,504.6406 L204.7693,506.2813 Q204.7693,508.0625 205.2771,508.9141 Q205.7849,509.7656 206.8631,509.7656 Q207.7849,509.7656 208.3162,509.2813 Q208.8474,508.7969 208.8943,507.7188 L211.2381,507.7188 Z "/><text fill="#000000" font-family="sans-serif" font-size="12" lengthAdjust="spacingAndGlyphs" textLength="45" x="227.2537" y="509.6016">Persoon</text><line style="stroke: #A80036; stroke-width: 1.5;" x1="77.0037" x2="390.0037" y1="521.5" y2="521.5"/><ellipse cx="87.0037" cy="533.4453" fill="none" rx="3" ry="3" style="stroke: #038048; stroke-width: 1.0;"/><text fill="#000000" font-family="sans-serif" font-size="11" lengthAdjust="spacingAndGlyphs" textLength="28" x="96.0037" y="535.7051">id: int</text><ellipse cx="87.0037" cy="546.3359" fill="none" rx="3" ry="3" style="stroke: #038048; stroke-width: 1.0;"/><text fill="#000000" font-family="sans-serif" font-size="11" lengthAdjust="spacingAndGlyphs" textLength="84" x="96.0037" y="548.5957">voornaam: string</text><ellipse cx="87.0037" cy="559.2266" fill="none" rx="3" ry="3" style="stroke: #038048; stroke-width: 1.0;"/><text fill="#000000" font-family="sans-serif" font-size="11" lengthAdjust="spacingAndGlyphs" textLength="107" x="96.0037" y="561.4863">tussenvoegsel: string</text><ellipse cx="87.0037" cy="572.1172" fill="none" rx="3" ry="3" style="stroke: #038048; stroke-width: 1.0;"/><text fill="#000000" font-family="sans-serif" font-size="11" lengthAdjust="spacingAndGlyphs" textLength="95" x="96.0037" y="574.377">achternaam: string</text><ellipse cx="87.0037" cy="585.0078" fill="none" rx="3" ry="3" style="stroke: #038048; stroke-width: 1.0;"/><text fill="#000000" font-family="sans-serif" font-size="11" lengthAdjust="spacingAndGlyphs" textLength="63" x="96.0037" y="587.2676">email: string</text><ellipse cx="87.0037" cy="597.8984" fill="none" rx="3" ry="3" style="stroke: #038048; stroke-width: 1.0;"/><text fill="#000000" font-family="sans-serif" font-size="11" lengthAdjust="spacingAndGlyphs" textLength="63" x="96.0037" y="600.1582">adres: string</text><ellipse cx="87.0037" cy="610.7891" fill="none" rx="3" ry="3" style="stroke: #038048; stroke-width: 1.0;"/><text fill="#000000" font-family="sans-serif" font-size="11" lengthAdjust="spacingAndGlyphs" textLength="81" x="96.0037" y="613.0488">postcode: string</text><ellipse cx="87.0037" cy="623.6797" fill="none" rx="3" ry="3" style="stroke: #038048; stroke-width: 1.0;"/><text fill="#000000" font-family="sans-serif" font-size="11" lengthAdjust="spacingAndGlyphs" textLength="92" x="96.0037" y="625.9395">woonplaats: string</text><ellipse cx="87.0037" cy="636.5703" fill="none" rx="3" ry="3" style="stroke: #038048; stroke-width: 1.0;"/><text fill="#000000" font-family="sans-serif" font-size="11" lengthAdjust="spacingAndGlyphs" textLength="95" x="96.0037" y="638.8301">wachtwoord: string</text><ellipse cx="87.0037" cy="649.4609" fill="none" rx="3" ry="3" style="stroke: #038048; stroke-width: 1.0;"/><text fill="#000000" font-family="sans-serif" font-size="11" lengthAdjust="spacingAndGlyphs" textLength="104" x="96.0037" y="651.7207">geboortedatum: date</text><ellipse cx="87.0037" cy="662.3516" fill="none" rx="3" ry="3" style="stroke: #038048; stroke-width: 1.0;"/><text fill="#000000" font-family="sans-serif" font-size="11" lengthAdjust="spacingAndGlyphs" textLength="78" x="96.0037" y="664.6113">geslacht: string</text><ellipse cx="87.0037" cy="675.2422" fill="none" rx="3" ry="3" style="stroke: #038048; stroke-width: 1.0;"/><text fill="#000000" font-family="sans-serif" font-size="11" lengthAdjust="spacingAndGlyphs" textLength="100" x="96.0037" y="677.502">opmerkingen: string</text><ellipse cx="87.0037" cy="688.1328" fill="none" rx="3" ry="3" style="stroke: #038048; stroke-width: 1.0;"/><text fill="#000000" font-family="sans-serif" font-size="11" lengthAdjust="spacingAndGlyphs" textLength="72" x="96.0037" y="690.3926">lid_sinds: date</text><ellipse cx="87.0037" cy="701.0234" fill="none" rx="3" ry="3" style="stroke: #038048; stroke-width: 1.0;"/><text fill="#000000" font-family="sans-serif" font-size="11" lengthAdjust="spacingAndGlyphs" textLength="59" x="96.0037" y="703.2832">lid_tot: date</text><ellipse cx="87.0037" cy="713.9141" fill="none" rx="3" ry="3" style="stroke: #038048; stroke-width: 1.0;"/><text fill="#000000" font-family="sans-serif" font-size="11" lengthAdjust="spacingAndGlyphs" textLength="73" x="96.0037" y="716.1738">gumbode: bool</text><ellipse cx="87.0037" cy="726.8047" fill="none" rx="3" ry="3" style="stroke: #038048; stroke-width: 1.0;"/><text fill="#000000" font-family="sans-serif" font-size="11" lengthAdjust="spacingAndGlyphs" textLength="49" x="96.0037" y="729.0645">post: bool</text><ellipse cx="87.0037" cy="739.6953" fill="#84BE84" rx="3" ry="3" style="stroke: #038048; stroke-width: 1.0;"/><text fill="#000000" font-family="sans-serif" font-size="11" lengthAdjust="spacingAndGlyphs" text-decoration="underline" textLength="167" x="96.0037" y="741.9551">commit(persoon_id: int): Persoon</text><line style="stroke: #000000; stroke-width: 1.0;" x1="96.0037" x2="263.0037" y1="743.9551" y2="743.9551"/><rect fill="#F24D5C" height="6" style="stroke: #C82930; stroke-width: 1.0;" width="6" x="84.0037" y="749.5859"/><text fill="#000000" font-family="sans-serif" font-size="11" lengthAdjust="spacingAndGlyphs" text-decoration="underline" textLength="289" x="96.0037" y="754.8457">validate(input: array, persoon: Persoon): System\Validator</text><line style="stroke: #000000; stroke-width: 1.0;" x1="96.0037" x2="385.0037" y1="756.8457" y2="756.8457"/><ellipse cx="87.0037" cy="765.4766" fill="#84BE84" rx="3" ry="3" style="stroke: #038048; stroke-width: 1.0;"/><text fill="#000000" font-family="sans-serif" font-size="11" lengthAdjust="spacingAndGlyphs" text-decoration="underline" textLength="160" x="96.0037" y="767.7363">getMorrisLedenopbouw(): string</text><line style="stroke: #000000; stroke-width: 1.0;" x1="96.0037" x2="256.0037" y1="769.7363" y2="769.7363"/><line style="stroke: #A80036; stroke-width: 1.0; stroke-dasharray: 1.0,2.0;" x1="77.0037" x2="390.0037" y1="774.4219" y2="774.4219"/><ellipse cx="87.0037" cy="786.3672" fill="#84BE84" rx="3" ry="3" style="stroke: #038048; stroke-width: 1.0;"/><text fill="#000000" font-family="sans-serif" font-size="11" lengthAdjust="spacingAndGlyphs" textLength="120" x="96.0037" y="788.627">volledige_naam(): string</text><ellipse cx="87.0037" cy="799.2578" fill="#84BE84" rx="3" ry="3" style="stroke: #038048; stroke-width: 1.0;"/><text fill="#000000" font-family="sans-serif" font-size="11" lengthAdjust="spacingAndGlyphs" textLength="90" x="96.0037" y="801.5176">groepen(): Groep[]</text><ellipse cx="87.0037" cy="812.1484" fill="#84BE84" rx="3" ry="3" style="stroke: #038048; stroke-width: 1.0;"/><text fill="#000000" font-family="sans-serif" font-size="11" lengthAdjust="spacingAndGlyphs" textLength="101" x="96.0037" y="814.4082">lidstatussen(): array</text><ellipse cx="87.0037" cy="825.0391" fill="#84BE84" rx="3" ry="3" style="stroke: #038048; stroke-width: 1.0;"/><text fill="#000000" font-family="sans-serif" font-size="11" lengthAdjust="spacingAndGlyphs" textLength="87" x="96.0037" y="827.2988">lidstatus(): string</text><ellipse cx="87.0037" cy="837.9297" fill="#84BE84" rx="3" ry="3" style="stroke: #038048; stroke-width: 1.0;"/><text fill="#000000" font-family="sans-serif" font-size="11" lengthAdjust="spacingAndGlyphs" textLength="86" x="96.0037" y="840.1895">has_groep(): bool</text><ellipse cx="87.0037" cy="850.8203" fill="#84BE84" rx="3" ry="3" style="stroke: #038048; stroke-width: 1.0;"/><text fill="#000000" font-family="sans-serif" font-size="11" lengthAdjust="spacingAndGlyphs" textLength="163" x="96.0037" y="853.0801">has_groeptype(type: string): bool</text><!--class Rol--><rect fill="#FEFECE" filter="url(#fkusri1)" height="86.6719" style="stroke: #A80036; stroke-width: 1.5;" width="116" x="175.504" y="1358"/><ellipse cx="220.754" cy="1374" fill="#ADD1B2" rx="11" ry="11" style="stroke: #A80036; stroke-width: 1.0;"/><path d="M225.2384,1376.2188 Q225.1759,1377.125 224.8399,1377.8594 Q224.504,1378.5938 223.9415,1379.1094 Q223.379,1379.625 222.5978,1379.8984 Q221.8165,1380.1719 220.8634,1380.1719 Q219.8009,1380.1719 218.9649,1379.7813 Q218.129,1379.3906 217.5665,1378.6797 Q217.004,1377.9688 216.7071,1376.9688 Q216.4103,1375.9688 216.4103,1374.7813 L216.4103,1373.1563 Q216.4103,1371.9531 216.7228,1370.9531 Q217.0353,1369.9531 217.6212,1369.2422 Q218.2071,1368.5313 219.0274,1368.1328 Q219.8478,1367.7344 220.879,1367.7344 Q221.879,1367.7344 222.6524,1368.0156 Q223.4259,1368.2969 223.9806,1368.8203 Q224.5353,1369.3438 224.8478,1370.1016 Q225.1603,1370.8594 225.2384,1371.8125 L222.9103,1371.8125 Q222.879,1371.2656 222.754,1370.8594 Q222.629,1370.4531 222.3868,1370.1875 Q222.1446,1369.9219 221.7696,1369.7813 Q221.3946,1369.6406 220.879,1369.6406 Q220.3478,1369.6406 219.9493,1369.875 Q219.5509,1370.1094 219.2853,1370.5547 Q219.0196,1371 218.8946,1371.6563 Q218.7696,1372.3125 218.7696,1373.1406 L218.7696,1374.7813 Q218.7696,1376.5625 219.2774,1377.4141 Q219.7853,1378.2656 220.8634,1378.2656 Q221.7853,1378.2656 222.3165,1377.7813 Q222.8478,1377.2969 222.8946,1376.2188 L225.2384,1376.2188 Z "/><text fill="#000000" font-family="sans-serif" font-size="12" lengthAdjust="spacingAndGlyphs" textLength="17" x="241.254" y="1378.1016">Rol</text><line style="stroke: #A80036; stroke-width: 1.5;" x1="176.504" x2="290.504" y1="1390" y2="1390"/><text fill="#000000" font-family="sans-serif" font-size="11" lengthAdjust="spacingAndGlyphs" textLength="104" x="181.504" y="1404.2051">VOORZITTER: int = 1</text><line style="stroke: #A80036; stroke-width: 1.0; stroke-dasharray: 1.0,2.0;" x1="176.504" x2="290.504" y1="1410.8906" y2="1410.8906"/><ellipse cx="186.504" cy="1422.8359" fill="none" rx="3" ry="3" style="stroke: #038048; stroke-width: 1.0;"/><text fill="#000000" font-family="sans-serif" font-size="11" lengthAdjust="spacingAndGlyphs" textLength="28" x="195.504" y="1425.0957">id: int</text><ellipse cx="186.504" cy="1435.7266" fill="none" rx="3" ry="3" style="stroke: #038048; stroke-width: 1.0;"/><text fill="#000000" font-family="sans-serif" font-size="11" lengthAdjust="spacingAndGlyphs" textLength="63" x="195.504" y="1437.9863">naam: string</text><!--class Token--><rect fill="#FEFECE" filter="url(#fkusri1)" height="176.9063" style="stroke: #A80036; stroke-width: 1.5;" width="361" x="53.0037" y="8"/><ellipse cx="212.7537" cy="24" fill="#ADD1B2" rx="11" ry="11" style="stroke: #A80036; stroke-width: 1.0;"/><path d="M217.2381,26.2188 Q217.1756,27.125 216.8396,27.8594 Q216.5037,28.5938 215.9412,29.1094 Q215.3787,29.625 214.5975,29.8984 Q213.8162,30.1719 212.8631,30.1719 Q211.8006,30.1719 210.9646,29.7813 Q210.1287,29.3906 209.5662,28.6797 Q209.0037,27.9688 208.7068,26.9688 Q208.41,25.9688 208.41,24.7813 L208.41,23.1563 Q208.41,21.9531 208.7225,20.9531 Q209.035,19.9531 209.6209,19.2422 Q210.2068,18.5313 211.0271,18.1328 Q211.8475,17.7344 212.8787,17.7344 Q213.8787,17.7344 214.6521,18.0156 Q215.4256,18.2969 215.9803,18.8203 Q216.535,19.3438 216.8475,20.1016 Q217.16,20.8594 217.2381,21.8125 L214.91,21.8125 Q214.8787,21.2656 214.7537,20.8594 Q214.6287,20.4531 214.3865,20.1875 Q214.1443,19.9219 213.7693,19.7813 Q213.3943,19.6406 212.8787,19.6406 Q212.3475,19.6406 211.949,19.875 Q211.5506,20.1094 211.285,20.5547 Q211.0193,21 210.8943,21.6563 Q210.7693,22.3125 210.7693,23.1406 L210.7693,24.7813 Q210.7693,26.5625 211.2771,27.4141 Q211.785,28.2656 212.8631,28.2656 Q213.785,28.2656 214.3162,27.7813 Q214.8475,27.2969 214.8943,26.2188 L217.2381,26.2188 Z "/><text fill="#000000" font-family="sans-serif" font-size="12" lengthAdjust="spacingAndGlyphs" textLength="33" x="233.2537" y="28.1016">Token</text><line style="stroke: #A80036; stroke-width: 1.5;" x1="54.0037" x2="413.0037" y1="40" y2="40"/><ellipse cx="64.0037" cy="51.9453" fill="none" rx="3" ry="3" style="stroke: #038048; stroke-width: 1.0;"/><text fill="#000000" font-family="sans-serif" font-size="11" lengthAdjust="spacingAndGlyphs" textLength="28" x="73.0037" y="54.2051">id: int</text><ellipse cx="64.0037" cy="64.8359" fill="none" rx="3" ry="3" style="stroke: #038048; stroke-width: 1.0;"/><text fill="#000000" font-family="sans-serif" font-size="11" lengthAdjust="spacingAndGlyphs" textLength="63" x="73.0037" y="67.0957">token: string</text><ellipse cx="64.0037" cy="77.7266" fill="none" rx="3" ry="3" style="stroke: #038048; stroke-width: 1.0;"/><text fill="#000000" font-family="sans-serif" font-size="11" lengthAdjust="spacingAndGlyphs" textLength="104" x="73.0037" y="79.9863">created_at: datetime</text><ellipse cx="64.0037" cy="90.6172" fill="none" rx="3" ry="3" style="stroke: #038048; stroke-width: 1.0;"/><text fill="#000000" font-family="sans-serif" font-size="11" lengthAdjust="spacingAndGlyphs" textLength="58" x="73.0037" y="92.877">lifetime: int</text><ellipse cx="64.0037" cy="103.5078" fill="none" rx="3" ry="3" style="stroke: #038048; stroke-width: 1.0;"/><text fill="#000000" font-family="sans-serif" font-size="11" lengthAdjust="spacingAndGlyphs" textLength="59" x="73.0037" y="105.7676">code: string</text><ellipse cx="64.0037" cy="116.3984" fill="none" rx="3" ry="3" style="stroke: #038048; stroke-width: 1.0;"/><text fill="#000000" font-family="sans-serif" font-size="11" lengthAdjust="spacingAndGlyphs" textLength="73" x="73.0037" y="118.6582">persoon_id: int</text><ellipse cx="64.0037" cy="129.2891" fill="none" rx="3" ry="3" style="stroke: #038048; stroke-width: 1.0;"/><text fill="#000000" font-family="sans-serif" font-size="11" lengthAdjust="spacingAndGlyphs" textLength="63" x="73.0037" y="131.5488">email: string</text><line style="stroke: #A80036; stroke-width: 1.5;" x1="54.0037" x2="413.0037" y1="138.2344" y2="138.2344"/><ellipse cx="64.0037" cy="150.1797" fill="#84BE84" rx="3" ry="3" style="stroke: #038048; stroke-width: 1.0;"/><text fill="#000000" font-family="sans-serif" font-size="11" lengthAdjust="spacingAndGlyphs" text-decoration="underline" textLength="335" x="73.0037" y="152.4395">create(persoon_id: int, email: string, lifetime: int, code: string): bool</text><line style="stroke: #000000; stroke-width: 1.0;" x1="73.0037" x2="408.0037" y1="154.4395" y2="154.4395"/><ellipse cx="64.0037" cy="163.0703" fill="#84BE84" rx="3" ry="3" style="stroke: #038048; stroke-width: 1.0;"/><text fill="#000000" font-family="sans-serif" font-size="11" lengthAdjust="spacingAndGlyphs" text-decoration="underline" textLength="179" x="73.0037" y="165.3301">forget(persoon_id: int, email: string)</text><line style="stroke: #000000; stroke-width: 1.0;" x1="73.0037" x2="252.0037" y1="167.3301" y2="167.3301"/><ellipse cx="64.0037" cy="175.9609" fill="#84BE84" rx="3" ry="3" style="stroke: #038048; stroke-width: 1.0;"/><text fill="#000000" font-family="sans-serif" font-size="11" lengthAdjust="spacingAndGlyphs" text-decoration="underline" textLength="214" x="73.0037" y="178.2207">resetPassword(token: string, email: string)</text><line style="stroke: #000000; stroke-width: 1.0;" x1="73.0037" x2="287.0037" y1="180.2207" y2="180.2207"/><!--class persoon_groep--><rect fill="#FEFECE" filter="url(#fkusri1)" height="92.7969" style="stroke: #A80036; stroke-width: 1.5;" width="112" x="523.004" y="1114"/><ellipse cx="538.004" cy="1133.0625" fill="#FFC0CB" rx="11" ry="11" style="stroke: #A80036; stroke-width: 1.0;"/><path d="M538.0978,1136.6875 L540.379,1127.9688 L542.9415,1127.9688 L539.2853,1140.0625 L536.9103,1140.0625 L533.254,1127.9688 L535.8321,1127.9688 L538.0978,1136.6875 Z "/><text fill="#000000" font-family="sans-serif" font-size="12" font-style="italic" lengthAdjust="spacingAndGlyphs" textLength="44" x="570.004" y="1130.1328">«virtual»</text><text fill="#000000" font-family="sans-serif" font-size="12" lengthAdjust="spacingAndGlyphs" textLength="80" x="552.004" y="1144.1953">persoon_groep</text><line style="stroke: #A80036; stroke-width: 1.5;" x1="524.004" x2="634.004" y1="1152.125" y2="1152.125"/><text fill="#000000" font-family="sans-serif" font-size="11" lengthAdjust="spacingAndGlyphs" textLength="73" x="529.004" y="1166.3301">persoon_id: int</text><text fill="#000000" font-family="sans-serif" font-size="11" lengthAdjust="spacingAndGlyphs" textLength="61" x="529.004" y="1179.2207">groep_id: int</text><text fill="#000000" font-family="sans-serif" font-size="11" lengthAdjust="spacingAndGlyphs" textLength="46" x="529.004" y="1192.1113">rol_id: int</text><line style="stroke: #A80036; stroke-width: 1.5;" x1="524.004" x2="634.004" y1="1198.7969" y2="1198.7969"/><!--class persoon_lidstatus--><rect fill="#FEFECE" filter="url(#fkusri1)" height="105.6875" style="stroke: #A80036; stroke-width: 1.5;" width="128" x="515.004" y="908.5"/><ellipse cx="530.004" cy="927.5625" fill="#FFC0CB" rx="11" ry="11" style="stroke: #A80036; stroke-width: 1.0;"/><path d="M530.0978,931.1875 L532.379,922.4688 L534.9415,922.4688 L531.2853,934.5625 L528.9103,934.5625 L525.254,922.4688 L527.8321,922.4688 L530.0978,931.1875 Z "/><text fill="#000000" font-family="sans-serif" font-size="12" font-style="italic" lengthAdjust="spacingAndGlyphs" textLength="44" x="570.004" y="924.6328">«virtual»</text><text fill="#000000" font-family="sans-serif" font-size="12" lengthAdjust="spacingAndGlyphs" textLength="96" x="544.004" y="938.6953">persoon_lidstatus</text><line style="stroke: #A80036; stroke-width: 1.5;" x1="516.004" x2="642.004" y1="946.625" y2="946.625"/><text fill="#000000" font-family="sans-serif" font-size="11" lengthAdjust="spacingAndGlyphs" textLength="28" x="521.004" y="960.8301">id: int</text><text fill="#000000" font-family="sans-serif" font-size="11" lengthAdjust="spacingAndGlyphs" textLength="73" x="521.004" y="973.7207">persoon_id: int</text><text fill="#000000" font-family="sans-serif" font-size="11" lengthAdjust="spacingAndGlyphs" textLength="54" x="521.004" y="986.6113">jaar: string</text><text fill="#000000" font-family="sans-serif" font-size="11" lengthAdjust="spacingAndGlyphs" textLength="77" x="521.004" y="999.502">lidstatus_id: int</text><line style="stroke: #A80036; stroke-width: 1.5;" x1="516.004" x2="642.004" y1="1006.1875" y2="1006.1875"/><ellipse cx="233.504" cy="1160.5" fill="#000000" rx="2" ry="2" style="stroke: none; stroke-width: 1.0;"/><ellipse cx="233.504" cy="896.5" fill="#000000" rx="2" ry="2" style="stroke: none; stroke-width: 1.0;"/><polygon fill="#FBFB77" filter="url(#fkusri1)" points="744.004,1041.5,744.004,1081.9688,1047.004,1081.9688,1047.004,1051.5,1037.004,1041.5,744.004,1041.5" style="stroke: #A80036; stroke-width: 1.0;"/><line style="stroke: #A80036; stroke-width: 1.0;" x1="1037.004" x2="1037.004" y1="1041.5" y2="1051.5"/><line style="stroke: #A80036; stroke-width: 1.0;" x1="1047.004" x2="1037.004" y1="1051.5" y2="1051.5"/><text fill="#000000" font-family="sans-serif" font-size="13" lengthAdjust="spacingAndGlyphs" textLength="282" x="750.004" y="1058.5605">Virtual packages are used to link objects together,</text><text fill="#000000" font-family="sans-serif" font-size="13" lengthAdjust="spacingAndGlyphs" textLength="170" x="750.004" y="1073.7949">they only exist in the database</text><path d="M75.8623,809.049 C54.3,835.21 35.3559,864.173 23.0037,895 C4.076,942.238 -2.3421,1079.872 23.0037,1124 C67.1549,1200.869 212.339,1166.022 231.426,1161.055 " fill="none" style="stroke: #A80036; stroke-width: 1.0;"/><text fill="#000000" font-family="sans-serif" font-size="13" lengthAdjust="spacingAndGlyphs" textLength="19" x="48.7664" y="827.9893">0..*</text><path d="M233.504,1162.551 C233.504,1174.367 233.504,1186.184 233.504,1198 " fill="none" style="stroke: #A80036; stroke-width: 1.0;"/><text fill="#000000" font-family="sans-serif" font-size="13" lengthAdjust="spacingAndGlyphs" textLength="19" x="213.4056" y="1186.9605">0..*</text><path d="M235.747,1160.5 C252.325,1160.5 430.514,1160.5 522.989,1160.5 " fill="none" style="stroke: #A80036; stroke-width: 1.0; stroke-dasharray: 7.0,7.0;"/><path d="M233.504,859.554 C233.504,871.147 233.504,882.739 233.504,894.332 " fill="none" style="stroke: #A80036; stroke-width: 1.0;"/><text fill="#000000" font-family="sans-serif" font-size="13" lengthAdjust="spacingAndGlyphs" textLength="19" x="214.1032" y="879.7373">0..*</text><path d="M233.504,898.516 C233.504,910.133 233.504,921.75 233.504,933.367 " fill="none" style="stroke: #A80036; stroke-width: 1.0;"/><text fill="#000000" font-family="sans-serif" font-size="13" lengthAdjust="spacingAndGlyphs" textLength="19" x="213.747" y="922.2664">0..*</text><path d="M235.653,896.559 C247.001,897.151 340.095,902.333 414.004,916.5 C447.64,922.947 484.466,932.791 514.685,941.63 " fill="none" style="stroke: #A80036; stroke-width: 1.0; stroke-dasharray: 7.0,7.0;"/><path d="M291.575,1389.9163 C328.591,1380.5887 376.693,1364.9307 414.004,1340.5 C468.117,1305.067 516.128,1247.693 546.001,1207.261 " fill="none" style="stroke: #A80036; stroke-width: 1.0;"/><path d="M635.145,1143.142 C689.757,1125.951 773.316,1099.648 830.749,1081.569 " fill="none" style="stroke: #A80036; stroke-width: 1.0; stroke-dasharray: 7.0,7.0;"/><path d="M643.269,981.616 C697.978,999.012 776.66,1024.03 831.339,1041.416 " fill="none" style="stroke: #A80036; stroke-width: 1.0; stroke-dasharray: 7.0,7.0;"/></g></svg>