<?xml version="1.0" encoding="UTF-8" standalone="no"?><svg xmlns="http://www.w3.org/2000/svg" xmlns:xlink="http://www.w3.org/1999/xlink" contentScriptType="application/ecmascript" contentStyleType="text/css" height="689px" preserveAspectRatio="none" style="width:1637px;height:689px;" version="1.1" viewBox="0 0 1637 689" width="1637px" zoomAndPan="magnify"><defs><filter height="300%" id="fjdruh8" width="300%" x="-1" y="-1"><feGaussianBlur result="blurOut" stdDeviation="2.0"/><feColorMatrix in="blurOut" result="blurOut2" type="matrix" values="0 0 0 0 0 0 0 0 0 0 0 0 0 0 0 0 0 0 .4 0"/><feOffset dx="4.0" dy="4.0" in="blurOut2" result="blurOut3"/><feBlend in="SourceGraphic" in2="blurOut3" mode="normal"/></filter></defs><g><!--cluster Gumbo/MyGumbo--><polygon fill="#FFFFFF" filter="url(#fjdruh8)" points="22,24,144,24,151,46.4063,1287,46.4063,1287,682,22,682,22,24" style="stroke: #000000; stroke-width: 2.0;"/><line style="stroke: #000000; stroke-width: 2.0;" x1="22" x2="151" y1="46.4063" y2="46.4063"/><text fill="#000000" font-family="sans-serif" font-size="14" font-weight="bold" lengthAdjust="spacingAndGlyphs" textLength="116" x="26" y="38.9883">Gumbo/MyGumbo</text><!--cluster Current database--><path d="M1311,148 C1311,138 1470.5,138 1470.5,138 C1470.5,138 1630,138 1630,148 L1630,633.5 C1630,643.5 1470.5,643.5 1470.5,643.5 C1470.5,643.5 1311,643.5 1311,633.5 L1311,148 " fill="#FFFFFF" filter="url(#fjdruh8)" style="stroke: #000000; stroke-width: 2.0;"/><path d="M1311,148 C1311,158 1470.5,158 1470.5,158 C1470.5,158 1630,158 1630,148 " fill="none" style="stroke: #000000; stroke-width: 2.0;"/><text fill="#000000" font-family="sans-serif" font-size="14" font-weight="bold" lengthAdjust="spacingAndGlyphs" textLength="111" x="1415" y="171.9883">Current database</text><!--class Agenda--><rect fill="#FEFECE" filter="url(#fjdruh8)" height="73.7813" style="stroke: #A80036; stroke-width: 1.5;" width="151" x="38.5" y="207"/><ellipse cx="88.75" cy="223" fill="#ADD1B2" rx="11" ry="11" style="stroke: #A80036; stroke-width: 1.0;"/><path d="M93.2344,225.2188 Q93.1719,226.125 92.8359,226.8594 Q92.5,227.5938 91.9375,228.1094 Q91.375,228.625 90.5938,228.8984 Q89.8125,229.1719 88.8594,229.1719 Q87.7969,229.1719 86.9609,228.7813 Q86.125,228.3906 85.5625,227.6797 Q85,226.9688 84.7031,225.9688 Q84.4063,224.9688 84.4063,223.7813 L84.4063,222.1563 Q84.4063,220.9531 84.7188,219.9531 Q85.0313,218.9531 85.6172,218.2422 Q86.2031,217.5313 87.0234,217.1328 Q87.8438,216.7344 88.875,216.7344 Q89.875,216.7344 90.6484,217.0156 Q91.4219,217.2969 91.9766,217.8203 Q92.5313,218.3438 92.8438,219.1016 Q93.1563,219.8594 93.2344,220.8125 L90.9063,220.8125 Q90.875,220.2656 90.75,219.8594 Q90.625,219.4531 90.3828,219.1875 Q90.1406,218.9219 89.7656,218.7813 Q89.3906,218.6406 88.875,218.6406 Q88.3438,218.6406 87.9453,218.875 Q87.5469,219.1094 87.2813,219.5547 Q87.0156,220 86.8906,220.6563 Q86.7656,221.3125 86.7656,222.1406 L86.7656,223.7813 Q86.7656,225.5625 87.2734,226.4141 Q87.7813,227.2656 88.8594,227.2656 Q89.7813,227.2656 90.3125,226.7813 Q90.8438,226.2969 90.8906,225.2188 L93.2344,225.2188 Z "/><text fill="#000000" font-family="sans-serif" font-size="12" lengthAdjust="spacingAndGlyphs" textLength="42" x="109.25" y="227.1016">Agenda</text><line style="stroke: #A80036; stroke-width: 1.5;" x1="39.5" x2="188.5" y1="239" y2="239"/><line style="stroke: #A80036; stroke-width: 1.5;" x1="39.5" x2="188.5" y1="247" y2="247"/><ellipse cx="49.5" cy="258.9453" fill="#84BE84" rx="3" ry="3" style="stroke: #038048; stroke-width: 1.0;"/><text fill="#000000" font-family="sans-serif" font-size="11" lengthAdjust="spacingAndGlyphs" text-decoration="underline" textLength="125" x="58.5" y="261.2051">getAgendaItems(): string</text><line style="stroke: #000000; stroke-width: 1.0;" x1="58.5" x2="183.5" y1="263.2051" y2="263.2051"/><rect fill="#F24D5C" height="6" style="stroke: #C82930; stroke-width: 1.0;" width="6" x="46.5" y="268.8359"/><text fill="#000000" font-family="sans-serif" font-size="11" lengthAdjust="spacingAndGlyphs" text-decoration="underline" textLength="121" x="58.5" y="274.0957">getVerjaardagen(): array</text><line style="stroke: #000000; stroke-width: 1.0;" x1="58.5" x2="179.5" y1="276.0957" y2="276.0957"/><polygon fill="#FBFB77" filter="url(#fjdruh8)" points="38,557.5,38,597.9688,248,597.9688,248,567.5,238,557.5,38,557.5" style="stroke: #A80036; stroke-width: 1.0;"/><polygon fill="#FBFB77" points="38,557.5,38,597.9688,248,597.9688,248,567.5,238,557.5,145.327,557.5,117.159,281.107,137.327,557.5,38,557.5" style="stroke: #A80036; stroke-width: 1.0;"/><line style="stroke: #A80036; stroke-width: 1.0;" x1="238" x2="238" y1="557.5" y2="567.5"/><line style="stroke: #A80036; stroke-width: 1.0;" x1="248" x2="238" y1="567.5" y2="567.5"/><text fill="#000000" font-family="sans-serif" font-size="13" lengthAdjust="spacingAndGlyphs" textLength="145" x="44" y="574.5605">Not available in database,</text><text fill="#000000" font-family="sans-serif" font-size="13" lengthAdjust="spacingAndGlyphs" textLength="186" x="47" y="589.7949">constructed from Persoon model</text><!--class Groep--><rect fill="#FEFECE" filter="url(#fjdruh8)" height="125.3438" style="stroke: #A80036; stroke-width: 1.5;" width="133" x="952.5" y="181.5"/><ellipse cx="998.75" cy="197.5" fill="#ADD1B2" rx="11" ry="11" style="stroke: #A80036; stroke-width: 1.0;"/><path d="M1003.2344,199.7188 Q1003.1719,200.625 1002.8359,201.3594 Q1002.5,202.0938 1001.9375,202.6094 Q1001.375,203.125 1000.5938,203.3984 Q999.8125,203.6719 998.8594,203.6719 Q997.7969,203.6719 996.9609,203.2813 Q996.125,202.8906 995.5625,202.1797 Q995,201.4688 994.7031,200.4688 Q994.4063,199.4688 994.4063,198.2813 L994.4063,196.6563 Q994.4063,195.4531 994.7188,194.4531 Q995.0313,193.4531 995.6172,192.7422 Q996.2031,192.0313 997.0234,191.6328 Q997.8438,191.2344 998.875,191.2344 Q999.875,191.2344 1000.6484,191.5156 Q1001.4219,191.7969 1001.9766,192.3203 Q1002.5313,192.8438 1002.8438,193.6016 Q1003.1563,194.3594 1003.2344,195.3125 L1000.9063,195.3125 Q1000.875,194.7656 1000.75,194.3594 Q1000.625,193.9531 1000.3828,193.6875 Q1000.1406,193.4219 999.7656,193.2813 Q999.3906,193.1406 998.875,193.1406 Q998.3438,193.1406 997.9453,193.375 Q997.5469,193.6094 997.2813,194.0547 Q997.0156,194.5 996.8906,195.1563 Q996.7656,195.8125 996.7656,196.6406 L996.7656,198.2813 Q996.7656,200.0625 997.2734,200.9141 Q997.7813,201.7656 998.8594,201.7656 Q999.7813,201.7656 1000.3125,201.2813 Q1000.8438,200.7969 1000.8906,199.7188 L1003.2344,199.7188 Z "/><text fill="#000000" font-family="sans-serif" font-size="12" lengthAdjust="spacingAndGlyphs" textLength="32" x="1019.25" y="201.6016">Groep</text><line style="stroke: #A80036; stroke-width: 1.5;" x1="953.5" x2="1084.5" y1="213.5" y2="213.5"/><ellipse cx="963.5" cy="225.4453" fill="none" rx="3" ry="3" style="stroke: #038048; stroke-width: 1.0;"/><text fill="#000000" font-family="sans-serif" font-size="11" lengthAdjust="spacingAndGlyphs" textLength="28" x="972.5" y="227.7051">id: int</text><ellipse cx="963.5" cy="238.3359" fill="none" rx="3" ry="3" style="stroke: #038048; stroke-width: 1.0;"/><text fill="#000000" font-family="sans-serif" font-size="11" lengthAdjust="spacingAndGlyphs" textLength="63" x="972.5" y="240.5957">naam: string</text><ellipse cx="963.5" cy="251.2266" fill="none" rx="3" ry="3" style="stroke: #038048; stroke-width: 1.0;"/><text fill="#000000" font-family="sans-serif" font-size="11" lengthAdjust="spacingAndGlyphs" textLength="56" x="972.5" y="253.4863">type: string</text><ellipse cx="963.5" cy="264.1172" fill="none" rx="3" ry="3" style="stroke: #038048; stroke-width: 1.0;"/><text fill="#000000" font-family="sans-serif" font-size="11" lengthAdjust="spacingAndGlyphs" textLength="63" x="972.5" y="266.377">email: string</text><ellipse cx="963.5" cy="277.0078" fill="none" rx="3" ry="3" style="stroke: #038048; stroke-width: 1.0;"/><text fill="#000000" font-family="sans-serif" font-size="11" lengthAdjust="spacingAndGlyphs" textLength="99" x="972.5" y="279.2676">omschrijving: string</text><line style="stroke: #A80036; stroke-width: 1.5;" x1="953.5" x2="1084.5" y1="285.9531" y2="285.9531"/><ellipse cx="963.5" cy="297.8984" fill="#84BE84" rx="3" ry="3" style="stroke: #038048; stroke-width: 1.0;"/><text fill="#000000" font-family="sans-serif" font-size="11" lengthAdjust="spacingAndGlyphs" textLength="107" x="972.5" y="300.1582">personen(): Persoon[]</text><!--class Lidstatus--><rect fill="#FEFECE" filter="url(#fjdruh8)" height="189.7969" style="stroke: #A80036; stroke-width: 1.5;" width="150" x="1121" y="149"/><ellipse cx="1166.75" cy="165" fill="#ADD1B2" rx="11" ry="11" style="stroke: #A80036; stroke-width: 1.0;"/><path d="M1171.2344,167.2188 Q1171.1719,168.125 1170.8359,168.8594 Q1170.5,169.5938 1169.9375,170.1094 Q1169.375,170.625 1168.5938,170.8984 Q1167.8125,171.1719 1166.8594,171.1719 Q1165.7969,171.1719 1164.9609,170.7813 Q1164.125,170.3906 1163.5625,169.6797 Q1163,168.9688 1162.7031,167.9688 Q1162.4063,166.9688 1162.4063,165.7813 L1162.4063,164.1563 Q1162.4063,162.9531 1162.7188,161.9531 Q1163.0313,160.9531 1163.6172,160.2422 Q1164.2031,159.5313 1165.0234,159.1328 Q1165.8438,158.7344 1166.875,158.7344 Q1167.875,158.7344 1168.6484,159.0156 Q1169.4219,159.2969 1169.9766,159.8203 Q1170.5313,160.3438 1170.8438,161.1016 Q1171.1563,161.8594 1171.2344,162.8125 L1168.9063,162.8125 Q1168.875,162.2656 1168.75,161.8594 Q1168.625,161.4531 1168.3828,161.1875 Q1168.1406,160.9219 1167.7656,160.7813 Q1167.3906,160.6406 1166.875,160.6406 Q1166.3438,160.6406 1165.9453,160.875 Q1165.5469,161.1094 1165.2813,161.5547 Q1165.0156,162 1164.8906,162.6563 Q1164.7656,163.3125 1164.7656,164.1406 L1164.7656,165.7813 Q1164.7656,167.5625 1165.2734,168.4141 Q1165.7813,169.2656 1166.8594,169.2656 Q1167.7813,169.2656 1168.3125,168.7813 Q1168.8438,168.2969 1168.8906,167.2188 L1171.2344,167.2188 Z "/><text fill="#000000" font-family="sans-serif" font-size="12" lengthAdjust="spacingAndGlyphs" textLength="50" x="1187.25" y="169.1016">Lidstatus</text><line style="stroke: #A80036; stroke-width: 1.5;" x1="1122" x2="1270" y1="181" y2="181"/><ellipse cx="1132" cy="192.9453" fill="none" rx="3" ry="3" style="stroke: #038048; stroke-width: 1.0;"/><text fill="#000000" font-family="sans-serif" font-size="11" lengthAdjust="spacingAndGlyphs" text-decoration="underline" textLength="53" x="1141" y="195.2051">LID: int = 1</text><line style="stroke: #000000; stroke-width: 1.0;" x1="1141" x2="1194" y1="197.2051" y2="197.2051"/><ellipse cx="1132" cy="205.8359" fill="none" rx="3" ry="3" style="stroke: #038048; stroke-width: 1.0;"/><text fill="#000000" font-family="sans-serif" font-size="11" lengthAdjust="spacingAndGlyphs" text-decoration="underline" textLength="75" x="1141" y="208.0957">OUDLID: int = 2</text><line style="stroke: #000000; stroke-width: 1.0;" x1="1141" x2="1216" y1="210.0957" y2="210.0957"/><ellipse cx="1132" cy="218.7266" fill="none" rx="3" ry="3" style="stroke: #038048; stroke-width: 1.0;"/><text fill="#000000" font-family="sans-serif" font-size="11" lengthAdjust="spacingAndGlyphs" text-decoration="underline" textLength="72" x="1141" y="220.9863">ERELID: int = 3</text><line style="stroke: #000000; stroke-width: 1.0;" x1="1141" x2="1213" y1="222.9863" y2="222.9863"/><ellipse cx="1132" cy="231.6172" fill="none" rx="3" ry="3" style="stroke: #038048; stroke-width: 1.0;"/><text fill="#000000" font-family="sans-serif" font-size="11" lengthAdjust="spacingAndGlyphs" text-decoration="underline" textLength="111" x="1141" y="233.877">BEGUNSTIGER: int = 4</text><line style="stroke: #000000; stroke-width: 1.0;" x1="1141" x2="1252" y1="235.877" y2="235.877"/><ellipse cx="1132" cy="244.5078" fill="none" rx="3" ry="3" style="stroke: #038048; stroke-width: 1.0;"/><text fill="#000000" font-family="sans-serif" font-size="11" lengthAdjust="spacingAndGlyphs" text-decoration="underline" textLength="60" x="1141" y="246.7676">ALID: int = 5</text><line style="stroke: #000000; stroke-width: 1.0;" x1="1141" x2="1201" y1="248.7676" y2="248.7676"/><ellipse cx="1132" cy="257.3984" fill="none" rx="3" ry="3" style="stroke: #038048; stroke-width: 1.0;"/><text fill="#000000" font-family="sans-serif" font-size="11" lengthAdjust="spacingAndGlyphs" text-decoration="underline" textLength="66" x="1141" y="259.6582">EXLID: int = 6</text><line style="stroke: #000000; stroke-width: 1.0;" x1="1141" x2="1207" y1="261.6582" y2="261.6582"/><ellipse cx="1132" cy="270.2891" fill="none" rx="3" ry="3" style="stroke: #038048; stroke-width: 1.0;"/><text fill="#000000" font-family="sans-serif" font-size="11" lengthAdjust="spacingAndGlyphs" text-decoration="underline" textLength="124" x="1141" y="272.5488">EXBEGUNSTIGER: int = 7</text><line style="stroke: #000000; stroke-width: 1.0;" x1="1141" x2="1265" y1="274.5488" y2="274.5488"/><ellipse cx="1132" cy="283.1797" fill="none" rx="3" ry="3" style="stroke: #038048; stroke-width: 1.0;"/><text fill="#000000" font-family="sans-serif" font-size="11" lengthAdjust="spacingAndGlyphs" text-decoration="underline" textLength="94" x="1141" y="285.4395">ONBEKEND: int = 8</text><line style="stroke: #000000; stroke-width: 1.0;" x1="1141" x2="1235" y1="287.4395" y2="287.4395"/><line style="stroke: #A80036; stroke-width: 1.0; stroke-dasharray: 1.0,2.0;" x1="1122" x2="1270" y1="292.125" y2="292.125"/><ellipse cx="1132" cy="304.0703" fill="none" rx="3" ry="3" style="stroke: #038048; stroke-width: 1.0;"/><text fill="#000000" font-family="sans-serif" font-size="11" lengthAdjust="spacingAndGlyphs" textLength="28" x="1141" y="306.3301">id: int</text><ellipse cx="1132" cy="316.9609" fill="none" rx="3" ry="3" style="stroke: #038048; stroke-width: 1.0;"/><text fill="#000000" font-family="sans-serif" font-size="11" lengthAdjust="spacingAndGlyphs" textLength="63" x="1141" y="319.2207">naam: string</text><ellipse cx="1132" cy="329.8516" fill="#84BE84" rx="3" ry="3" style="stroke: #038048; stroke-width: 1.0;"/><text fill="#000000" font-family="sans-serif" font-size="11" lengthAdjust="spacingAndGlyphs" text-decoration="underline" textLength="77" x="1141" y="332.1113">studiejaar(): int</text><line style="stroke: #000000; stroke-width: 1.0;" x1="1141" x2="1218" y1="334.1113" y2="334.1113"/><!--class Log--><rect fill="#FEFECE" filter="url(#fjdruh8)" height="125.3438" style="stroke: #A80036; stroke-width: 1.5;" width="177" x="224.5" y="181.5"/><ellipse cx="298.75" cy="197.5" fill="#ADD1B2" rx="11" ry="11" style="stroke: #A80036; stroke-width: 1.0;"/><path d="M303.2344,199.7188 Q303.1719,200.625 302.8359,201.3594 Q302.5,202.0938 301.9375,202.6094 Q301.375,203.125 300.5938,203.3984 Q299.8125,203.6719 298.8594,203.6719 Q297.7969,203.6719 296.9609,203.2813 Q296.125,202.8906 295.5625,202.1797 Q295,201.4688 294.7031,200.4688 Q294.4063,199.4688 294.4063,198.2813 L294.4063,196.6563 Q294.4063,195.4531 294.7188,194.4531 Q295.0313,193.4531 295.6172,192.7422 Q296.2031,192.0313 297.0234,191.6328 Q297.8438,191.2344 298.875,191.2344 Q299.875,191.2344 300.6484,191.5156 Q301.4219,191.7969 301.9766,192.3203 Q302.5313,192.8438 302.8438,193.6016 Q303.1563,194.3594 303.2344,195.3125 L300.9063,195.3125 Q300.875,194.7656 300.75,194.3594 Q300.625,193.9531 300.3828,193.6875 Q300.1406,193.4219 299.7656,193.2813 Q299.3906,193.1406 298.875,193.1406 Q298.3438,193.1406 297.9453,193.375 Q297.5469,193.6094 297.2813,194.0547 Q297.0156,194.5 296.8906,195.1563 Q296.7656,195.8125 296.7656,196.6406 L296.7656,198.2813 Q296.7656,200.0625 297.2734,200.9141 Q297.7813,201.7656 298.8594,201.7656 Q299.7813,201.7656 300.3125,201.2813 Q300.8438,200.7969 300.8906,199.7188 L303.2344,199.7188 Z "/><text fill="#000000" font-family="sans-serif" font-size="12" lengthAdjust="spacingAndGlyphs" textLength="20" x="319.25" y="201.6016">Log</text><line style="stroke: #A80036; stroke-width: 1.5;" x1="225.5" x2="400.5" y1="213.5" y2="213.5"/><ellipse cx="235.5" cy="225.4453" fill="none" rx="3" ry="3" style="stroke: #038048; stroke-width: 1.0;"/><text fill="#000000" font-family="sans-serif" font-size="11" lengthAdjust="spacingAndGlyphs" textLength="28" x="244.5" y="227.7051">id: int</text><ellipse cx="235.5" cy="238.3359" fill="none" rx="3" ry="3" style="stroke: #038048; stroke-width: 1.0;"/><text fill="#000000" font-family="sans-serif" font-size="11" lengthAdjust="spacingAndGlyphs" textLength="73" x="244.5" y="240.5957">persoon_id: int</text><ellipse cx="235.5" cy="251.2266" fill="none" rx="3" ry="3" style="stroke: #038048; stroke-width: 1.0;"/><text fill="#000000" font-family="sans-serif" font-size="11" lengthAdjust="spacingAndGlyphs" textLength="96" x="244.5" y="253.4863">datetime: datetime</text><ellipse cx="235.5" cy="264.1172" fill="none" rx="3" ry="3" style="stroke: #038048; stroke-width: 1.0;"/><text fill="#000000" font-family="sans-serif" font-size="11" lengthAdjust="spacingAndGlyphs" textLength="56" x="244.5" y="266.377">type: string</text><ellipse cx="235.5" cy="277.0078" fill="none" rx="3" ry="3" style="stroke: #038048; stroke-width: 1.0;"/><text fill="#000000" font-family="sans-serif" font-size="11" lengthAdjust="spacingAndGlyphs" textLength="61" x="244.5" y="279.2676">value: string</text><line style="stroke: #A80036; stroke-width: 1.5;" x1="225.5" x2="400.5" y1="285.9531" y2="285.9531"/><ellipse cx="235.5" cy="297.8984" fill="#84BE84" rx="3" ry="3" style="stroke: #038048; stroke-width: 1.0;"/><text fill="#000000" font-family="sans-serif" font-size="11" lengthAdjust="spacingAndGlyphs" text-decoration="underline" textLength="151" x="244.5" y="300.1582">getLogItems(aantal: int): Log[]</text><line style="stroke: #000000; stroke-width: 1.0;" x1="244.5" x2="395.5" y1="302.1582" y2="302.1582"/><!--class Persoon--><rect fill="#FEFECE" filter="url(#fjdruh8)" height="370.2656" style="stroke: #A80036; stroke-width: 1.5;" width="315" x="436.5" y="59"/><ellipse cx="567.25" cy="75" fill="#ADD1B2" rx="11" ry="11" style="stroke: #A80036; stroke-width: 1.0;"/><path d="M571.7344,77.2188 Q571.6719,78.125 571.3359,78.8594 Q571,79.5938 570.4375,80.1094 Q569.875,80.625 569.0938,80.8984 Q568.3125,81.1719 567.3594,81.1719 Q566.2969,81.1719 565.4609,80.7813 Q564.625,80.3906 564.0625,79.6797 Q563.5,78.9688 563.2031,77.9688 Q562.9063,76.9688 562.9063,75.7813 L562.9063,74.1563 Q562.9063,72.9531 563.2188,71.9531 Q563.5313,70.9531 564.1172,70.2422 Q564.7031,69.5313 565.5234,69.1328 Q566.3438,68.7344 567.375,68.7344 Q568.375,68.7344 569.1484,69.0156 Q569.9219,69.2969 570.4766,69.8203 Q571.0313,70.3438 571.3438,71.1016 Q571.6563,71.8594 571.7344,72.8125 L569.4063,72.8125 Q569.375,72.2656 569.25,71.8594 Q569.125,71.4531 568.8828,71.1875 Q568.6406,70.9219 568.2656,70.7813 Q567.8906,70.6406 567.375,70.6406 Q566.8438,70.6406 566.4453,70.875 Q566.0469,71.1094 565.7813,71.5547 Q565.5156,72 565.3906,72.6563 Q565.2656,73.3125 565.2656,74.1406 L565.2656,75.7813 Q565.2656,77.5625 565.7734,78.4141 Q566.2813,79.2656 567.3594,79.2656 Q568.2813,79.2656 568.8125,78.7813 Q569.3438,78.2969 569.3906,77.2188 L571.7344,77.2188 Z "/><text fill="#000000" font-family="sans-serif" font-size="12" lengthAdjust="spacingAndGlyphs" textLength="45" x="587.75" y="79.1016">Persoon</text><line style="stroke: #A80036; stroke-width: 1.5;" x1="437.5" x2="750.5" y1="91" y2="91"/><ellipse cx="447.5" cy="102.9453" fill="none" rx="3" ry="3" style="stroke: #038048; stroke-width: 1.0;"/><text fill="#000000" font-family="sans-serif" font-size="11" lengthAdjust="spacingAndGlyphs" textLength="28" x="456.5" y="105.2051">id: int</text><ellipse cx="447.5" cy="115.8359" fill="none" rx="3" ry="3" style="stroke: #038048; stroke-width: 1.0;"/><text fill="#000000" font-family="sans-serif" font-size="11" lengthAdjust="spacingAndGlyphs" textLength="84" x="456.5" y="118.0957">voornaam: string</text><ellipse cx="447.5" cy="128.7266" fill="none" rx="3" ry="3" style="stroke: #038048; stroke-width: 1.0;"/><text fill="#000000" font-family="sans-serif" font-size="11" lengthAdjust="spacingAndGlyphs" textLength="107" x="456.5" y="130.9863">tussenvoegsel: string</text><ellipse cx="447.5" cy="141.6172" fill="none" rx="3" ry="3" style="stroke: #038048; stroke-width: 1.0;"/><text fill="#000000" font-family="sans-serif" font-size="11" lengthAdjust="spacingAndGlyphs" textLength="95" x="456.5" y="143.877">achternaam: string</text><ellipse cx="447.5" cy="154.5078" fill="none" rx="3" ry="3" style="stroke: #038048; stroke-width: 1.0;"/><text fill="#000000" font-family="sans-serif" font-size="11" lengthAdjust="spacingAndGlyphs" textLength="63" x="456.5" y="156.7676">email: string</text><ellipse cx="447.5" cy="167.3984" fill="none" rx="3" ry="3" style="stroke: #038048; stroke-width: 1.0;"/><text fill="#000000" font-family="sans-serif" font-size="11" lengthAdjust="spacingAndGlyphs" textLength="63" x="456.5" y="169.6582">adres: string</text><ellipse cx="447.5" cy="180.2891" fill="none" rx="3" ry="3" style="stroke: #038048; stroke-width: 1.0;"/><text fill="#000000" font-family="sans-serif" font-size="11" lengthAdjust="spacingAndGlyphs" textLength="81" x="456.5" y="182.5488">postcode: string</text><ellipse cx="447.5" cy="193.1797" fill="none" rx="3" ry="3" style="stroke: #038048; stroke-width: 1.0;"/><text fill="#000000" font-family="sans-serif" font-size="11" lengthAdjust="spacingAndGlyphs" textLength="92" x="456.5" y="195.4395">woonplaats: string</text><ellipse cx="447.5" cy="206.0703" fill="none" rx="3" ry="3" style="stroke: #038048; stroke-width: 1.0;"/><text fill="#000000" font-family="sans-serif" font-size="11" lengthAdjust="spacingAndGlyphs" textLength="95" x="456.5" y="208.3301">wachtwoord: string</text><ellipse cx="447.5" cy="218.9609" fill="none" rx="3" ry="3" style="stroke: #038048; stroke-width: 1.0;"/><text fill="#000000" font-family="sans-serif" font-size="11" lengthAdjust="spacingAndGlyphs" textLength="104" x="456.5" y="221.2207">geboortedatum: date</text><ellipse cx="447.5" cy="231.8516" fill="none" rx="3" ry="3" style="stroke: #038048; stroke-width: 1.0;"/><text fill="#000000" font-family="sans-serif" font-size="11" lengthAdjust="spacingAndGlyphs" textLength="78" x="456.5" y="234.1113">geslacht: string</text><ellipse cx="447.5" cy="244.7422" fill="none" rx="3" ry="3" style="stroke: #038048; stroke-width: 1.0;"/><text fill="#000000" font-family="sans-serif" font-size="11" lengthAdjust="spacingAndGlyphs" textLength="100" x="456.5" y="247.002">opmerkingen: string</text><ellipse cx="447.5" cy="257.6328" fill="none" rx="3" ry="3" style="stroke: #038048; stroke-width: 1.0;"/><text fill="#000000" font-family="sans-serif" font-size="11" lengthAdjust="spacingAndGlyphs" textLength="72" x="456.5" y="259.8926">lid_sinds: date</text><ellipse cx="447.5" cy="270.5234" fill="none" rx="3" ry="3" style="stroke: #038048; stroke-width: 1.0;"/><text fill="#000000" font-family="sans-serif" font-size="11" lengthAdjust="spacingAndGlyphs" textLength="59" x="456.5" y="272.7832">lid_tot: date</text><ellipse cx="447.5" cy="283.4141" fill="none" rx="3" ry="3" style="stroke: #038048; stroke-width: 1.0;"/><text fill="#000000" font-family="sans-serif" font-size="11" lengthAdjust="spacingAndGlyphs" textLength="73" x="456.5" y="285.6738">gumbode: bool</text><ellipse cx="447.5" cy="296.3047" fill="none" rx="3" ry="3" style="stroke: #038048; stroke-width: 1.0;"/><text fill="#000000" font-family="sans-serif" font-size="11" lengthAdjust="spacingAndGlyphs" textLength="49" x="456.5" y="298.5645">post: bool</text><ellipse cx="447.5" cy="309.1953" fill="#84BE84" rx="3" ry="3" style="stroke: #038048; stroke-width: 1.0;"/><text fill="#000000" font-family="sans-serif" font-size="11" lengthAdjust="spacingAndGlyphs" text-decoration="underline" textLength="167" x="456.5" y="311.4551">commit(persoon_id: int): Persoon</text><line style="stroke: #000000; stroke-width: 1.0;" x1="456.5" x2="623.5" y1="313.4551" y2="313.4551"/><rect fill="#F24D5C" height="6" style="stroke: #C82930; stroke-width: 1.0;" width="6" x="444.5" y="319.0859"/><text fill="#000000" font-family="sans-serif" font-size="11" lengthAdjust="spacingAndGlyphs" text-decoration="underline" textLength="289" x="456.5" y="324.3457">validate(input: array, persoon: Persoon): System\Validator</text><line style="stroke: #000000; stroke-width: 1.0;" x1="456.5" x2="745.5" y1="326.3457" y2="326.3457"/><ellipse cx="447.5" cy="334.9766" fill="#84BE84" rx="3" ry="3" style="stroke: #038048; stroke-width: 1.0;"/><text fill="#000000" font-family="sans-serif" font-size="11" lengthAdjust="spacingAndGlyphs" text-decoration="underline" textLength="160" x="456.5" y="337.2363">getMorrisLedenopbouw(): string</text><line style="stroke: #000000; stroke-width: 1.0;" x1="456.5" x2="616.5" y1="339.2363" y2="339.2363"/><line style="stroke: #A80036; stroke-width: 1.0; stroke-dasharray: 1.0,2.0;" x1="437.5" x2="750.5" y1="343.9219" y2="343.9219"/><ellipse cx="447.5" cy="355.8672" fill="#84BE84" rx="3" ry="3" style="stroke: #038048; stroke-width: 1.0;"/><text fill="#000000" font-family="sans-serif" font-size="11" lengthAdjust="spacingAndGlyphs" textLength="120" x="456.5" y="358.127">volledige_naam(): string</text><ellipse cx="447.5" cy="368.7578" fill="#84BE84" rx="3" ry="3" style="stroke: #038048; stroke-width: 1.0;"/><text fill="#000000" font-family="sans-serif" font-size="11" lengthAdjust="spacingAndGlyphs" textLength="90" x="456.5" y="371.0176">groepen(): Groep[]</text><ellipse cx="447.5" cy="381.6484" fill="#84BE84" rx="3" ry="3" style="stroke: #038048; stroke-width: 1.0;"/><text fill="#000000" font-family="sans-serif" font-size="11" lengthAdjust="spacingAndGlyphs" textLength="101" x="456.5" y="383.9082">lidstatussen(): array</text><ellipse cx="447.5" cy="394.5391" fill="#84BE84" rx="3" ry="3" style="stroke: #038048; stroke-width: 1.0;"/><text fill="#000000" font-family="sans-serif" font-size="11" lengthAdjust="spacingAndGlyphs" textLength="87" x="456.5" y="396.7988">lidstatus(): string</text><ellipse cx="447.5" cy="407.4297" fill="#84BE84" rx="3" ry="3" style="stroke: #038048; stroke-width: 1.0;"/><text fill="#000000" font-family="sans-serif" font-size="11" lengthAdjust="spacingAndGlyphs" textLength="86" x="456.5" y="409.6895">has_groep(): bool</text><ellipse cx="447.5" cy="420.3203" fill="#84BE84" rx="3" ry="3" style="stroke: #038048; stroke-width: 1.0;"/><text fill="#000000" font-family="sans-serif" font-size="11" lengthAdjust="spacingAndGlyphs" textLength="163" x="456.5" y="422.5801">has_groeptype(type: string): bool</text><!--class Rol--><rect fill="#FEFECE" filter="url(#fjdruh8)" height="86.6719" style="stroke: #A80036; stroke-width: 1.5;" width="130" x="787" y="200.5"/><ellipse cx="839.25" cy="216.5" fill="#ADD1B2" rx="11" ry="11" style="stroke: #A80036; stroke-width: 1.0;"/><path d="M843.7344,218.7188 Q843.6719,219.625 843.3359,220.3594 Q843,221.0938 842.4375,221.6094 Q841.875,222.125 841.0938,222.3984 Q840.3125,222.6719 839.3594,222.6719 Q838.2969,222.6719 837.4609,222.2813 Q836.625,221.8906 836.0625,221.1797 Q835.5,220.4688 835.2031,219.4688 Q834.9063,218.4688 834.9063,217.2813 L834.9063,215.6563 Q834.9063,214.4531 835.2188,213.4531 Q835.5313,212.4531 836.1172,211.7422 Q836.7031,211.0313 837.5234,210.6328 Q838.3438,210.2344 839.375,210.2344 Q840.375,210.2344 841.1484,210.5156 Q841.9219,210.7969 842.4766,211.3203 Q843.0313,211.8438 843.3438,212.6016 Q843.6563,213.3594 843.7344,214.3125 L841.4063,214.3125 Q841.375,213.7656 841.25,213.3594 Q841.125,212.9531 840.8828,212.6875 Q840.6406,212.4219 840.2656,212.2813 Q839.8906,212.1406 839.375,212.1406 Q838.8438,212.1406 838.4453,212.375 Q838.0469,212.6094 837.7813,213.0547 Q837.5156,213.5 837.3906,214.1563 Q837.2656,214.8125 837.2656,215.6406 L837.2656,217.2813 Q837.2656,219.0625 837.7734,219.9141 Q838.2813,220.7656 839.3594,220.7656 Q840.2813,220.7656 840.8125,220.2813 Q841.3438,219.7969 841.3906,218.7188 L843.7344,218.7188 Z "/><text fill="#000000" font-family="sans-serif" font-size="12" lengthAdjust="spacingAndGlyphs" textLength="17" x="859.75" y="220.6016">Rol</text><line style="stroke: #A80036; stroke-width: 1.5;" x1="788" x2="916" y1="232.5" y2="232.5"/><ellipse cx="798" cy="244.4453" fill="none" rx="3" ry="3" style="stroke: #038048; stroke-width: 1.0;"/><text fill="#000000" font-family="sans-serif" font-size="11" lengthAdjust="spacingAndGlyphs" text-decoration="underline" textLength="104" x="807" y="246.7051">VOORZITTER: int = 1</text><line style="stroke: #000000; stroke-width: 1.0;" x1="807" x2="911" y1="248.7051" y2="248.7051"/><line style="stroke: #A80036; stroke-width: 1.0; stroke-dasharray: 1.0,2.0;" x1="788" x2="916" y1="253.3906" y2="253.3906"/><ellipse cx="798" cy="265.3359" fill="none" rx="3" ry="3" style="stroke: #038048; stroke-width: 1.0;"/><text fill="#000000" font-family="sans-serif" font-size="11" lengthAdjust="spacingAndGlyphs" textLength="28" x="807" y="267.5957">id: int</text><ellipse cx="798" cy="278.2266" fill="none" rx="3" ry="3" style="stroke: #038048; stroke-width: 1.0;"/><text fill="#000000" font-family="sans-serif" font-size="11" lengthAdjust="spacingAndGlyphs" textLength="63" x="807" y="280.4863">naam: string</text><!--class Token--><rect fill="#FEFECE" filter="url(#fjdruh8)" height="176.9063" style="stroke: #A80036; stroke-width: 1.5;" width="361" x="283.5" y="489"/><ellipse cx="443.25" cy="505" fill="#ADD1B2" rx="11" ry="11" style="stroke: #A80036; stroke-width: 1.0;"/><path d="M447.7344,507.2188 Q447.6719,508.125 447.3359,508.8594 Q447,509.5938 446.4375,510.1094 Q445.875,510.625 445.0938,510.8984 Q444.3125,511.1719 443.3594,511.1719 Q442.2969,511.1719 441.4609,510.7813 Q440.625,510.3906 440.0625,509.6797 Q439.5,508.9688 439.2031,507.9688 Q438.9063,506.9688 438.9063,505.7813 L438.9063,504.1563 Q438.9063,502.9531 439.2188,501.9531 Q439.5313,500.9531 440.1172,500.2422 Q440.7031,499.5313 441.5234,499.1328 Q442.3438,498.7344 443.375,498.7344 Q444.375,498.7344 445.1484,499.0156 Q445.9219,499.2969 446.4766,499.8203 Q447.0313,500.3438 447.3438,501.1016 Q447.6563,501.8594 447.7344,502.8125 L445.4063,502.8125 Q445.375,502.2656 445.25,501.8594 Q445.125,501.4531 444.8828,501.1875 Q444.6406,500.9219 444.2656,500.7813 Q443.8906,500.6406 443.375,500.6406 Q442.8438,500.6406 442.4453,500.875 Q442.0469,501.1094 441.7813,501.5547 Q441.5156,502 441.3906,502.6563 Q441.2656,503.3125 441.2656,504.1406 L441.2656,505.7813 Q441.2656,507.5625 441.7734,508.4141 Q442.2813,509.2656 443.3594,509.2656 Q444.2813,509.2656 444.8125,508.7813 Q445.3438,508.2969 445.3906,507.2188 L447.7344,507.2188 Z "/><text fill="#000000" font-family="sans-serif" font-size="12" lengthAdjust="spacingAndGlyphs" textLength="33" x="463.75" y="509.1016">Token</text><line style="stroke: #A80036; stroke-width: 1.5;" x1="284.5" x2="643.5" y1="521" y2="521"/><ellipse cx="294.5" cy="532.9453" fill="none" rx="3" ry="3" style="stroke: #038048; stroke-width: 1.0;"/><text fill="#000000" font-family="sans-serif" font-size="11" lengthAdjust="spacingAndGlyphs" textLength="28" x="303.5" y="535.2051">id: int</text><ellipse cx="294.5" cy="545.8359" fill="none" rx="3" ry="3" style="stroke: #038048; stroke-width: 1.0;"/><text fill="#000000" font-family="sans-serif" font-size="11" lengthAdjust="spacingAndGlyphs" textLength="63" x="303.5" y="548.0957">token: string</text><ellipse cx="294.5" cy="558.7266" fill="none" rx="3" ry="3" style="stroke: #038048; stroke-width: 1.0;"/><text fill="#000000" font-family="sans-serif" font-size="11" lengthAdjust="spacingAndGlyphs" textLength="104" x="303.5" y="560.9863">created_at: datetime</text><ellipse cx="294.5" cy="571.6172" fill="none" rx="3" ry="3" style="stroke: #038048; stroke-width: 1.0;"/><text fill="#000000" font-family="sans-serif" font-size="11" lengthAdjust="spacingAndGlyphs" textLength="58" x="303.5" y="573.877">lifetime: int</text><ellipse cx="294.5" cy="584.5078" fill="none" rx="3" ry="3" style="stroke: #038048; stroke-width: 1.0;"/><text fill="#000000" font-family="sans-serif" font-size="11" lengthAdjust="spacingAndGlyphs" textLength="59" x="303.5" y="586.7676">code: string</text><ellipse cx="294.5" cy="597.3984" fill="none" rx="3" ry="3" style="stroke: #038048; stroke-width: 1.0;"/><text fill="#000000" font-family="sans-serif" font-size="11" lengthAdjust="spacingAndGlyphs" textLength="73" x="303.5" y="599.6582">persoon_id: int</text><ellipse cx="294.5" cy="610.2891" fill="none" rx="3" ry="3" style="stroke: #038048; stroke-width: 1.0;"/><text fill="#000000" font-family="sans-serif" font-size="11" lengthAdjust="spacingAndGlyphs" textLength="63" x="303.5" y="612.5488">email: string</text><line style="stroke: #A80036; stroke-width: 1.5;" x1="284.5" x2="643.5" y1="619.2344" y2="619.2344"/><ellipse cx="294.5" cy="631.1797" fill="#84BE84" rx="3" ry="3" style="stroke: #038048; stroke-width: 1.0;"/><text fill="#000000" font-family="sans-serif" font-size="11" lengthAdjust="spacingAndGlyphs" text-decoration="underline" textLength="335" x="303.5" y="633.4395">create(persoon_id: int, email: string, lifetime: int, code: string): bool</text><line style="stroke: #000000; stroke-width: 1.0;" x1="303.5" x2="638.5" y1="635.4395" y2="635.4395"/><ellipse cx="294.5" cy="644.0703" fill="#84BE84" rx="3" ry="3" style="stroke: #038048; stroke-width: 1.0;"/><text fill="#000000" font-family="sans-serif" font-size="11" lengthAdjust="spacingAndGlyphs" text-decoration="underline" textLength="179" x="303.5" y="646.3301">forget(persoon_id: int, email: string)</text><line style="stroke: #000000; stroke-width: 1.0;" x1="303.5" x2="482.5" y1="648.3301" y2="648.3301"/><ellipse cx="294.5" cy="656.9609" fill="#84BE84" rx="3" ry="3" style="stroke: #038048; stroke-width: 1.0;"/><text fill="#000000" font-family="sans-serif" font-size="11" lengthAdjust="spacingAndGlyphs" text-decoration="underline" textLength="214" x="303.5" y="659.2207">resetPassword(token: string, email: string)</text><line style="stroke: #000000; stroke-width: 1.0;" x1="303.5" x2="517.5" y1="661.2207" y2="661.2207"/><!--class persoon_evenement--><rect fill="#FEFECE" filter="url(#fjdruh8)" height="112.4531" style="stroke: #A80036; stroke-width: 1.5;" width="140" x="1327" y="188"/><ellipse cx="1342" cy="204" fill="#ADD1B2" rx="11" ry="11" style="stroke: #A80036; stroke-width: 1.0;"/><path d="M1346.4844,206.2188 Q1346.4219,207.125 1346.0859,207.8594 Q1345.75,208.5938 1345.1875,209.1094 Q1344.625,209.625 1343.8438,209.8984 Q1343.0625,210.1719 1342.1094,210.1719 Q1341.0469,210.1719 1340.2109,209.7813 Q1339.375,209.3906 1338.8125,208.6797 Q1338.25,207.9688 1337.9531,206.9688 Q1337.6563,205.9688 1337.6563,204.7813 L1337.6563,203.1563 Q1337.6563,201.9531 1337.9688,200.9531 Q1338.2813,199.9531 1338.8672,199.2422 Q1339.4531,198.5313 1340.2734,198.1328 Q1341.0938,197.7344 1342.125,197.7344 Q1343.125,197.7344 1343.8984,198.0156 Q1344.6719,198.2969 1345.2266,198.8203 Q1345.7813,199.3438 1346.0938,200.1016 Q1346.4063,200.8594 1346.4844,201.8125 L1344.1563,201.8125 Q1344.125,201.2656 1344,200.8594 Q1343.875,200.4531 1343.6328,200.1875 Q1343.3906,199.9219 1343.0156,199.7813 Q1342.6406,199.6406 1342.125,199.6406 Q1341.5938,199.6406 1341.1953,199.875 Q1340.7969,200.1094 1340.5313,200.5547 Q1340.2656,201 1340.1406,201.6563 Q1340.0156,202.3125 1340.0156,203.1406 L1340.0156,204.7813 Q1340.0156,206.5625 1340.5234,207.4141 Q1341.0313,208.2656 1342.1094,208.2656 Q1343.0313,208.2656 1343.5625,207.7813 Q1344.0938,207.2969 1344.1406,206.2188 L1346.4844,206.2188 Z "/><text fill="#000000" font-family="sans-serif" font-size="12" lengthAdjust="spacingAndGlyphs" textLength="108" x="1356" y="208.1016">persoon_evenement</text><line style="stroke: #A80036; stroke-width: 1.5;" x1="1328" x2="1466" y1="220" y2="220"/><text fill="#000000" font-family="sans-serif" font-size="11" lengthAdjust="spacingAndGlyphs" textLength="73" x="1333" y="234.2051">persoon_id: int</text><text fill="#000000" font-family="sans-serif" font-size="11" lengthAdjust="spacingAndGlyphs" textLength="88" x="1333" y="247.0957">evenement_id: int</text><text fill="#000000" font-family="sans-serif" font-size="11" lengthAdjust="spacingAndGlyphs" textLength="64" x="1333" y="259.9863">betaald: bool</text><text fill="#000000" font-family="sans-serif" font-size="11" lengthAdjust="spacingAndGlyphs" textLength="119" x="1333" y="272.877">datum_inschrijven: date</text><text fill="#000000" font-family="sans-serif" font-size="11" lengthAdjust="spacingAndGlyphs" textLength="102" x="1333" y="285.7676">datum_betaald: date</text><line style="stroke: #A80036; stroke-width: 1.5;" x1="1328" x2="1466" y1="292.4531" y2="292.4531"/><!--class persoon_groep--><rect fill="#FEFECE" filter="url(#fjdruh8)" height="86.6719" style="stroke: #A80036; stroke-width: 1.5;" width="112" x="1502" y="200.5"/><ellipse cx="1517" cy="216.5" fill="#ADD1B2" rx="11" ry="11" style="stroke: #A80036; stroke-width: 1.0;"/><path d="M1521.4844,218.7188 Q1521.4219,219.625 1521.0859,220.3594 Q1520.75,221.0938 1520.1875,221.6094 Q1519.625,222.125 1518.8438,222.3984 Q1518.0625,222.6719 1517.1094,222.6719 Q1516.0469,222.6719 1515.2109,222.2813 Q1514.375,221.8906 1513.8125,221.1797 Q1513.25,220.4688 1512.9531,219.4688 Q1512.6563,218.4688 1512.6563,217.2813 L1512.6563,215.6563 Q1512.6563,214.4531 1512.9688,213.4531 Q1513.2813,212.4531 1513.8672,211.7422 Q1514.4531,211.0313 1515.2734,210.6328 Q1516.0938,210.2344 1517.125,210.2344 Q1518.125,210.2344 1518.8984,210.5156 Q1519.6719,210.7969 1520.2266,211.3203 Q1520.7813,211.8438 1521.0938,212.6016 Q1521.4063,213.3594 1521.4844,214.3125 L1519.1563,214.3125 Q1519.125,213.7656 1519,213.3594 Q1518.875,212.9531 1518.6328,212.6875 Q1518.3906,212.4219 1518.0156,212.2813 Q1517.6406,212.1406 1517.125,212.1406 Q1516.5938,212.1406 1516.1953,212.375 Q1515.7969,212.6094 1515.5313,213.0547 Q1515.2656,213.5 1515.1406,214.1563 Q1515.0156,214.8125 1515.0156,215.6406 L1515.0156,217.2813 Q1515.0156,219.0625 1515.5234,219.9141 Q1516.0313,220.7656 1517.1094,220.7656 Q1518.0313,220.7656 1518.5625,220.2813 Q1519.0938,219.7969 1519.1406,218.7188 L1521.4844,218.7188 Z "/><text fill="#000000" font-family="sans-serif" font-size="12" lengthAdjust="spacingAndGlyphs" textLength="80" x="1531" y="220.6016">persoon_groep</text><line style="stroke: #A80036; stroke-width: 1.5;" x1="1503" x2="1613" y1="232.5" y2="232.5"/><text fill="#000000" font-family="sans-serif" font-size="11" lengthAdjust="spacingAndGlyphs" textLength="73" x="1508" y="246.7051">persoon_id: int</text><text fill="#000000" font-family="sans-serif" font-size="11" lengthAdjust="spacingAndGlyphs" textLength="61" x="1508" y="259.5957">groep_id: int</text><text fill="#000000" font-family="sans-serif" font-size="11" lengthAdjust="spacingAndGlyphs" textLength="46" x="1508" y="272.4863">rol_id: int</text><line style="stroke: #A80036; stroke-width: 1.5;" x1="1503" x2="1613" y1="279.1719" y2="279.1719"/><!--class persoon_lidstatus--><rect fill="#FEFECE" filter="url(#fjdruh8)" height="99.5625" style="stroke: #A80036; stroke-width: 1.5;" width="128" x="1333" y="527.5"/><ellipse cx="1348" cy="543.5" fill="#ADD1B2" rx="11" ry="11" style="stroke: #A80036; stroke-width: 1.0;"/><path d="M1352.4844,545.7188 Q1352.4219,546.625 1352.0859,547.3594 Q1351.75,548.0938 1351.1875,548.6094 Q1350.625,549.125 1349.8438,549.3984 Q1349.0625,549.6719 1348.1094,549.6719 Q1347.0469,549.6719 1346.2109,549.2813 Q1345.375,548.8906 1344.8125,548.1797 Q1344.25,547.4688 1343.9531,546.4688 Q1343.6563,545.4688 1343.6563,544.2813 L1343.6563,542.6563 Q1343.6563,541.4531 1343.9688,540.4531 Q1344.2813,539.4531 1344.8672,538.7422 Q1345.4531,538.0313 1346.2734,537.6328 Q1347.0938,537.2344 1348.125,537.2344 Q1349.125,537.2344 1349.8984,537.5156 Q1350.6719,537.7969 1351.2266,538.3203 Q1351.7813,538.8438 1352.0938,539.6016 Q1352.4063,540.3594 1352.4844,541.3125 L1350.1563,541.3125 Q1350.125,540.7656 1350,540.3594 Q1349.875,539.9531 1349.6328,539.6875 Q1349.3906,539.4219 1349.0156,539.2813 Q1348.6406,539.1406 1348.125,539.1406 Q1347.5938,539.1406 1347.1953,539.375 Q1346.7969,539.6094 1346.5313,540.0547 Q1346.2656,540.5 1346.1406,541.1563 Q1346.0156,541.8125 1346.0156,542.6406 L1346.0156,544.2813 Q1346.0156,546.0625 1346.5234,546.9141 Q1347.0313,547.7656 1348.1094,547.7656 Q1349.0313,547.7656 1349.5625,547.2813 Q1350.0938,546.7969 1350.1406,545.7188 L1352.4844,545.7188 Z "/><text fill="#000000" font-family="sans-serif" font-size="12" lengthAdjust="spacingAndGlyphs" textLength="96" x="1362" y="547.6016">persoon_lidstatus</text><line style="stroke: #A80036; stroke-width: 1.5;" x1="1334" x2="1460" y1="559.5" y2="559.5"/><text fill="#000000" font-family="sans-serif" font-size="11" lengthAdjust="spacingAndGlyphs" textLength="28" x="1339" y="573.7051">id: int</text><text fill="#000000" font-family="sans-serif" font-size="11" lengthAdjust="spacingAndGlyphs" textLength="73" x="1339" y="586.5957">persoon_id: int</text><text fill="#000000" font-family="sans-serif" font-size="11" lengthAdjust="spacingAndGlyphs" textLength="54" x="1339" y="599.4863">jaar: string</text><text fill="#000000" font-family="sans-serif" font-size="11" lengthAdjust="spacingAndGlyphs" textLength="77" x="1339" y="612.377">lidstatus_id: int</text><line style="stroke: #A80036; stroke-width: 1.5;" x1="1334" x2="1460" y1="619.0625" y2="619.0625"/></g></svg>