<?xml version="1.0" encoding="UTF-8" standalone="no"?><svg xmlns="http://www.w3.org/2000/svg" xmlns:xlink="http://www.w3.org/1999/xlink" contentScriptType="application/ecmascript" contentStyleType="text/css" height="689px" preserveAspectRatio="none" style="width:1601px;height:689px;" version="1.1" viewBox="0 0 1601 689" width="1601px" zoomAndPan="magnify"><defs><filter height="300%" id="f4tdd3g" width="300%" x="-1" y="-1"><feGaussianBlur result="blurOut" stdDeviation="2.0"/><feColorMatrix in="blurOut" result="blurOut2" type="matrix" values="0 0 0 0 0 0 0 0 0 0 0 0 0 0 0 0 0 0 .4 0"/><feOffset dx="4.0" dy="4.0" in="blurOut2" result="blurOut3"/><feBlend in="SourceGraphic" in2="blurOut3" mode="normal"/></filter></defs><g><!--cluster Gumbo/MyGumbo--><polygon fill="#FFFFFF" filter="url(#f4tdd3g)" points="22,24,144,24,151,46.4063,1251,46.4063,1251,682,22,682,22,24" style="stroke: #000000; stroke-width: 2.0;"/><line style="stroke: #000000; stroke-width: 2.0;" x1="22" x2="151" y1="46.4063" y2="46.4063"/><text fill="#000000" font-family="sans-serif" font-size="14" font-weight="bold" lengthAdjust="spacingAndGlyphs" textLength="116" x="26" y="38.9883">Gumbo/MyGumbo</text><!--cluster Current database--><path d="M1275,148 C1275,138 1434.5,138 1434.5,138 C1434.5,138 1594,138 1594,148 L1594,633.5 C1594,643.5 1434.5,643.5 1434.5,643.5 C1434.5,643.5 1275,643.5 1275,633.5 L1275,148 " fill="#FFFFFF" filter="url(#f4tdd3g)" style="stroke: #000000; stroke-width: 2.0;"/><path d="M1275,148 C1275,158 1434.5,158 1434.5,158 C1434.5,158 1594,158 1594,148 " fill="none" style="stroke: #000000; stroke-width: 2.0;"/><text fill="#000000" font-family="sans-serif" font-size="14" font-weight="bold" lengthAdjust="spacingAndGlyphs" textLength="111" x="1379" y="171.9883">Current database</text><!--class Agenda--><rect fill="#FEFECE" filter="url(#f4tdd3g)" height="73.7813" style="stroke: #A80036; stroke-width: 1.5;" width="151" x="38.5" y="207"/><ellipse cx="88.75" cy="223" fill="#ADD1B2" rx="11" ry="11" style="stroke: #A80036; stroke-width: 1.0;"/><path d="M93.2344,225.2188 Q93.1719,226.125 92.8359,226.8594 Q92.5,227.5938 91.9375,228.1094 Q91.375,228.625 90.5938,228.8984 Q89.8125,229.1719 88.8594,229.1719 Q87.7969,229.1719 86.9609,228.7813 Q86.125,228.3906 85.5625,227.6797 Q85,226.9688 84.7031,225.9688 Q84.4063,224.9688 84.4063,223.7813 L84.4063,222.1563 Q84.4063,220.9531 84.7188,219.9531 Q85.0313,218.9531 85.6172,218.2422 Q86.2031,217.5313 87.0234,217.1328 Q87.8438,216.7344 88.875,216.7344 Q89.875,216.7344 90.6484,217.0156 Q91.4219,217.2969 91.9766,217.8203 Q92.5313,218.3438 92.8438,219.1016 Q93.1563,219.8594 93.2344,220.8125 L90.9063,220.8125 Q90.875,220.2656 90.75,219.8594 Q90.625,219.4531 90.3828,219.1875 Q90.1406,218.9219 89.7656,218.7813 Q89.3906,218.6406 88.875,218.6406 Q88.3438,218.6406 87.9453,218.875 Q87.5469,219.1094 87.2813,219.5547 Q87.0156,220 86.8906,220.6563 Q86.7656,221.3125 86.7656,222.1406 L86.7656,223.7813 Q86.7656,225.5625 87.2734,226.4141 Q87.7813,227.2656 88.8594,227.2656 Q89.7813,227.2656 90.3125,226.7813 Q90.8438,226.2969 90.8906,225.2188 L93.2344,225.2188 Z "/><text fill="#000000" font-family="sans-serif" font-size="12" lengthAdjust="spacingAndGlyphs" textLength="42" x="109.25" y="227.1016">Agenda</text><line style="stroke: #A80036; stroke-width: 1.5;" x1="39.5" x2="188.5" y1="239" y2="239"/><line style="stroke: #A80036; stroke-width: 1.5;" x1="39.5" x2="188.5" y1="247" y2="247"/><ellipse cx="49.5" cy="258.9453" fill="#84BE84" rx="3" ry="3" style="stroke: #038048; stroke-width: 1.0;"/><text fill="#000000" font-family="sans-serif" font-size="11" lengthAdjust="spacingAndGlyphs" text-decoration="underline" textLength="125" x="58.5" y="261.2051">getAgendaItems(): string</text><line style="stroke: #000000; stroke-width: 1.0;" x1="58.5" x2="183.5" y1="263.2051" y2="263.2051"/><rect fill="#F24D5C" height="6" style="stroke: #C82930; stroke-width: 1.0;" width="6" x="46.5" y="268.8359"/><text fill="#000000" font-family="sans-serif" font-size="11" lengthAdjust="spacingAndGlyphs" text-decoration="underline" textLength="121" x="58.5" y="274.0957">getVerjaardagen(): array</text><line style="stroke: #000000; stroke-width: 1.0;" x1="58.5" x2="179.5" y1="276.0957" y2="276.0957"/><polygon fill="#FBFB77" filter="url(#f4tdd3g)" points="38,557.5,38,597.9688,248,597.9688,248,567.5,238,557.5,38,557.5" style="stroke: #A80036; stroke-width: 1.0;"/><polygon fill="#FBFB77" points="38,557.5,38,597.9688,248,597.9688,248,567.5,238,557.5,145.327,557.5,117.159,281.107,137.327,557.5,38,557.5" style="stroke: #A80036; stroke-width: 1.0;"/><line style="stroke: #A80036; stroke-width: 1.0;" x1="238" x2="238" y1="557.5" y2="567.5"/><line style="stroke: #A80036; stroke-width: 1.0;" x1="248" x2="238" y1="567.5" y2="567.5"/><text fill="#000000" font-family="sans-serif" font-size="13" lengthAdjust="spacingAndGlyphs" textLength="145" x="44" y="574.5605">Not available in database,</text><text fill="#000000" font-family="sans-serif" font-size="13" lengthAdjust="spacingAndGlyphs" textLength="186" x="47" y="589.7949">constructed from Persoon model</text><!--class Groep--><rect fill="#FEFECE" filter="url(#f4tdd3g)" height="125.3438" style="stroke: #A80036; stroke-width: 1.5;" width="133" x="934.5" y="181.5"/><ellipse cx="980.75" cy="197.5" fill="#ADD1B2" rx="11" ry="11" style="stroke: #A80036; stroke-width: 1.0;"/><path d="M985.2344,199.7188 Q985.1719,200.625 984.8359,201.3594 Q984.5,202.0938 983.9375,202.6094 Q983.375,203.125 982.5938,203.3984 Q981.8125,203.6719 980.8594,203.6719 Q979.7969,203.6719 978.9609,203.2813 Q978.125,202.8906 977.5625,202.1797 Q977,201.4688 976.7031,200.4688 Q976.4063,199.4688 976.4063,198.2813 L976.4063,196.6563 Q976.4063,195.4531 976.7188,194.4531 Q977.0313,193.4531 977.6172,192.7422 Q978.2031,192.0313 979.0234,191.6328 Q979.8438,191.2344 980.875,191.2344 Q981.875,191.2344 982.6484,191.5156 Q983.4219,191.7969 983.9766,192.3203 Q984.5313,192.8438 984.8438,193.6016 Q985.1563,194.3594 985.2344,195.3125 L982.9063,195.3125 Q982.875,194.7656 982.75,194.3594 Q982.625,193.9531 982.3828,193.6875 Q982.1406,193.4219 981.7656,193.2813 Q981.3906,193.1406 980.875,193.1406 Q980.3438,193.1406 979.9453,193.375 Q979.5469,193.6094 979.2813,194.0547 Q979.0156,194.5 978.8906,195.1563 Q978.7656,195.8125 978.7656,196.6406 L978.7656,198.2813 Q978.7656,200.0625 979.2734,200.9141 Q979.7813,201.7656 980.8594,201.7656 Q981.7813,201.7656 982.3125,201.2813 Q982.8438,200.7969 982.8906,199.7188 L985.2344,199.7188 Z "/><text fill="#000000" font-family="sans-serif" font-size="12" lengthAdjust="spacingAndGlyphs" textLength="32" x="1001.25" y="201.6016">Groep</text><line style="stroke: #A80036; stroke-width: 1.5;" x1="935.5" x2="1066.5" y1="213.5" y2="213.5"/><ellipse cx="945.5" cy="225.4453" fill="none" rx="3" ry="3" style="stroke: #038048; stroke-width: 1.0;"/><text fill="#000000" font-family="sans-serif" font-size="11" lengthAdjust="spacingAndGlyphs" textLength="28" x="954.5" y="227.7051">id: int</text><ellipse cx="945.5" cy="238.3359" fill="none" rx="3" ry="3" style="stroke: #038048; stroke-width: 1.0;"/><text fill="#000000" font-family="sans-serif" font-size="11" lengthAdjust="spacingAndGlyphs" textLength="63" x="954.5" y="240.5957">naam: string</text><ellipse cx="945.5" cy="251.2266" fill="none" rx="3" ry="3" style="stroke: #038048; stroke-width: 1.0;"/><text fill="#000000" font-family="sans-serif" font-size="11" lengthAdjust="spacingAndGlyphs" textLength="56" x="954.5" y="253.4863">type: string</text><ellipse cx="945.5" cy="264.1172" fill="none" rx="3" ry="3" style="stroke: #038048; stroke-width: 1.0;"/><text fill="#000000" font-family="sans-serif" font-size="11" lengthAdjust="spacingAndGlyphs" textLength="63" x="954.5" y="266.377">email: string</text><ellipse cx="945.5" cy="277.0078" fill="none" rx="3" ry="3" style="stroke: #038048; stroke-width: 1.0;"/><text fill="#000000" font-family="sans-serif" font-size="11" lengthAdjust="spacingAndGlyphs" textLength="99" x="954.5" y="279.2676">omschrijving: string</text><line style="stroke: #A80036; stroke-width: 1.5;" x1="935.5" x2="1066.5" y1="285.9531" y2="285.9531"/><ellipse cx="945.5" cy="297.8984" fill="#84BE84" rx="3" ry="3" style="stroke: #038048; stroke-width: 1.0;"/><text fill="#000000" font-family="sans-serif" font-size="11" lengthAdjust="spacingAndGlyphs" textLength="107" x="954.5" y="300.1582">personen(): Persoon[]</text><!--class Lidstatus--><rect fill="#FEFECE" filter="url(#f4tdd3g)" height="189.7969" style="stroke: #A80036; stroke-width: 1.5;" width="132" x="1103" y="149"/><ellipse cx="1140.5" cy="165" fill="#ADD1B2" rx="11" ry="11" style="stroke: #A80036; stroke-width: 1.0;"/><path d="M1144.9844,167.2188 Q1144.9219,168.125 1144.5859,168.8594 Q1144.25,169.5938 1143.6875,170.1094 Q1143.125,170.625 1142.3438,170.8984 Q1141.5625,171.1719 1140.6094,171.1719 Q1139.5469,171.1719 1138.7109,170.7813 Q1137.875,170.3906 1137.3125,169.6797 Q1136.75,168.9688 1136.4531,167.9688 Q1136.1563,166.9688 1136.1563,165.7813 L1136.1563,164.1563 Q1136.1563,162.9531 1136.4688,161.9531 Q1136.7813,160.9531 1137.3672,160.2422 Q1137.9531,159.5313 1138.7734,159.1328 Q1139.5938,158.7344 1140.625,158.7344 Q1141.625,158.7344 1142.3984,159.0156 Q1143.1719,159.2969 1143.7266,159.8203 Q1144.2813,160.3438 1144.5938,161.1016 Q1144.9063,161.8594 1144.9844,162.8125 L1142.6563,162.8125 Q1142.625,162.2656 1142.5,161.8594 Q1142.375,161.4531 1142.1328,161.1875 Q1141.8906,160.9219 1141.5156,160.7813 Q1141.1406,160.6406 1140.625,160.6406 Q1140.0938,160.6406 1139.6953,160.875 Q1139.2969,161.1094 1139.0313,161.5547 Q1138.7656,162 1138.6406,162.6563 Q1138.5156,163.3125 1138.5156,164.1406 L1138.5156,165.7813 Q1138.5156,167.5625 1139.0234,168.4141 Q1139.5313,169.2656 1140.6094,169.2656 Q1141.5313,169.2656 1142.0625,168.7813 Q1142.5938,168.2969 1142.6406,167.2188 L1144.9844,167.2188 Z "/><text fill="#000000" font-family="sans-serif" font-size="12" lengthAdjust="spacingAndGlyphs" textLength="50" x="1159.5" y="169.1016">Lidstatus</text><line style="stroke: #A80036; stroke-width: 1.5;" x1="1104" x2="1234" y1="181" y2="181"/><ellipse cx="1114" cy="192.9453" fill="none" rx="3" ry="3" style="stroke: #038048; stroke-width: 1.0;"/><text fill="#000000" font-family="sans-serif" font-size="11" lengthAdjust="spacingAndGlyphs" text-decoration="underline" textLength="35" x="1123" y="195.2051">LID: int</text><line style="stroke: #000000; stroke-width: 1.0;" x1="1123" x2="1158" y1="197.2051" y2="197.2051"/><ellipse cx="1114" cy="205.8359" fill="none" rx="3" ry="3" style="stroke: #038048; stroke-width: 1.0;"/><text fill="#000000" font-family="sans-serif" font-size="11" lengthAdjust="spacingAndGlyphs" text-decoration="underline" textLength="57" x="1123" y="208.0957">OUDLID: int</text><line style="stroke: #000000; stroke-width: 1.0;" x1="1123" x2="1180" y1="210.0957" y2="210.0957"/><ellipse cx="1114" cy="218.7266" fill="none" rx="3" ry="3" style="stroke: #038048; stroke-width: 1.0;"/><text fill="#000000" font-family="sans-serif" font-size="11" lengthAdjust="spacingAndGlyphs" text-decoration="underline" textLength="54" x="1123" y="220.9863">ERELID: int</text><line style="stroke: #000000; stroke-width: 1.0;" x1="1123" x2="1177" y1="222.9863" y2="222.9863"/><ellipse cx="1114" cy="231.6172" fill="none" rx="3" ry="3" style="stroke: #038048; stroke-width: 1.0;"/><text fill="#000000" font-family="sans-serif" font-size="11" lengthAdjust="spacingAndGlyphs" text-decoration="underline" textLength="93" x="1123" y="233.877">BEGUNSTIGER: int</text><line style="stroke: #000000; stroke-width: 1.0;" x1="1123" x2="1216" y1="235.877" y2="235.877"/><ellipse cx="1114" cy="244.5078" fill="none" rx="3" ry="3" style="stroke: #038048; stroke-width: 1.0;"/><text fill="#000000" font-family="sans-serif" font-size="11" lengthAdjust="spacingAndGlyphs" text-decoration="underline" textLength="42" x="1123" y="246.7676">ALID: int</text><line style="stroke: #000000; stroke-width: 1.0;" x1="1123" x2="1165" y1="248.7676" y2="248.7676"/><ellipse cx="1114" cy="257.3984" fill="none" rx="3" ry="3" style="stroke: #038048; stroke-width: 1.0;"/><text fill="#000000" font-family="sans-serif" font-size="11" lengthAdjust="spacingAndGlyphs" text-decoration="underline" textLength="48" x="1123" y="259.6582">EXLID: int</text><line style="stroke: #000000; stroke-width: 1.0;" x1="1123" x2="1171" y1="261.6582" y2="261.6582"/><ellipse cx="1114" cy="270.2891" fill="none" rx="3" ry="3" style="stroke: #038048; stroke-width: 1.0;"/><text fill="#000000" font-family="sans-serif" font-size="11" lengthAdjust="spacingAndGlyphs" text-decoration="underline" textLength="106" x="1123" y="272.5488">EXBEGUNSTIGER: int</text><line style="stroke: #000000; stroke-width: 1.0;" x1="1123" x2="1229" y1="274.5488" y2="274.5488"/><ellipse cx="1114" cy="283.1797" fill="none" rx="3" ry="3" style="stroke: #038048; stroke-width: 1.0;"/><text fill="#000000" font-family="sans-serif" font-size="11" lengthAdjust="spacingAndGlyphs" text-decoration="underline" textLength="76" x="1123" y="285.4395">ONBEKEND: int</text><line style="stroke: #000000; stroke-width: 1.0;" x1="1123" x2="1199" y1="287.4395" y2="287.4395"/><line style="stroke: #A80036; stroke-width: 1.0; stroke-dasharray: 1.0,2.0;" x1="1104" x2="1234" y1="292.125" y2="292.125"/><ellipse cx="1114" cy="304.0703" fill="none" rx="3" ry="3" style="stroke: #038048; stroke-width: 1.0;"/><text fill="#000000" font-family="sans-serif" font-size="11" lengthAdjust="spacingAndGlyphs" textLength="28" x="1123" y="306.3301">id: int</text><ellipse cx="1114" cy="316.9609" fill="none" rx="3" ry="3" style="stroke: #038048; stroke-width: 1.0;"/><text fill="#000000" font-family="sans-serif" font-size="11" lengthAdjust="spacingAndGlyphs" textLength="63" x="1123" y="319.2207">naam: string</text><ellipse cx="1114" cy="329.8516" fill="#84BE84" rx="3" ry="3" style="stroke: #038048; stroke-width: 1.0;"/><text fill="#000000" font-family="sans-serif" font-size="11" lengthAdjust="spacingAndGlyphs" text-decoration="underline" textLength="77" x="1123" y="332.1113">studiejaar(): int</text><line style="stroke: #000000; stroke-width: 1.0;" x1="1123" x2="1200" y1="334.1113" y2="334.1113"/><!--class Log--><rect fill="#FEFECE" filter="url(#f4tdd3g)" height="125.3438" style="stroke: #A80036; stroke-width: 1.5;" width="177" x="224.5" y="181.5"/><ellipse cx="298.75" cy="197.5" fill="#ADD1B2" rx="11" ry="11" style="stroke: #A80036; stroke-width: 1.0;"/><path d="M303.2344,199.7188 Q303.1719,200.625 302.8359,201.3594 Q302.5,202.0938 301.9375,202.6094 Q301.375,203.125 300.5938,203.3984 Q299.8125,203.6719 298.8594,203.6719 Q297.7969,203.6719 296.9609,203.2813 Q296.125,202.8906 295.5625,202.1797 Q295,201.4688 294.7031,200.4688 Q294.4063,199.4688 294.4063,198.2813 L294.4063,196.6563 Q294.4063,195.4531 294.7188,194.4531 Q295.0313,193.4531 295.6172,192.7422 Q296.2031,192.0313 297.0234,191.6328 Q297.8438,191.2344 298.875,191.2344 Q299.875,191.2344 300.6484,191.5156 Q301.4219,191.7969 301.9766,192.3203 Q302.5313,192.8438 302.8438,193.6016 Q303.1563,194.3594 303.2344,195.3125 L300.9063,195.3125 Q300.875,194.7656 300.75,194.3594 Q300.625,193.9531 300.3828,193.6875 Q300.1406,193.4219 299.7656,193.2813 Q299.3906,193.1406 298.875,193.1406 Q298.3438,193.1406 297.9453,193.375 Q297.5469,193.6094 297.2813,194.0547 Q297.0156,194.5 296.8906,195.1563 Q296.7656,195.8125 296.7656,196.6406 L296.7656,198.2813 Q296.7656,200.0625 297.2734,200.9141 Q297.7813,201.7656 298.8594,201.7656 Q299.7813,201.7656 300.3125,201.2813 Q300.8438,200.7969 300.8906,199.7188 L303.2344,199.7188 Z "/><text fill="#000000" font-family="sans-serif" font-size="12" lengthAdjust="spacingAndGlyphs" textLength="20" x="319.25" y="201.6016">Log</text><line style="stroke: #A80036; stroke-width: 1.5;" x1="225.5" x2="400.5" y1="213.5" y2="213.5"/><ellipse cx="235.5" cy="225.4453" fill="none" rx="3" ry="3" style="stroke: #038048; stroke-width: 1.0;"/><text fill="#000000" font-family="sans-serif" font-size="11" lengthAdjust="spacingAndGlyphs" textLength="28" x="244.5" y="227.7051">id: int</text><ellipse cx="235.5" cy="238.3359" fill="none" rx="3" ry="3" style="stroke: #038048; stroke-width: 1.0;"/><text fill="#000000" font-family="sans-serif" font-size="11" lengthAdjust="spacingAndGlyphs" textLength="73" x="244.5" y="240.5957">persoon_id: int</text><ellipse cx="235.5" cy="251.2266" fill="none" rx="3" ry="3" style="stroke: #038048; stroke-width: 1.0;"/><text fill="#000000" font-family="sans-serif" font-size="11" lengthAdjust="spacingAndGlyphs" textLength="96" x="244.5" y="253.4863">datetime: datetime</text><ellipse cx="235.5" cy="264.1172" fill="none" rx="3" ry="3" style="stroke: #038048; stroke-width: 1.0;"/><text fill="#000000" font-family="sans-serif" font-size="11" lengthAdjust="spacingAndGlyphs" textLength="56" x="244.5" y="266.377">type: string</text><ellipse cx="235.5" cy="277.0078" fill="none" rx="3" ry="3" style="stroke: #038048; stroke-width: 1.0;"/><text fill="#000000" font-family="sans-serif" font-size="11" lengthAdjust="spacingAndGlyphs" textLength="61" x="244.5" y="279.2676">value: string</text><line style="stroke: #A80036; stroke-width: 1.5;" x1="225.5" x2="400.5" y1="285.9531" y2="285.9531"/><ellipse cx="235.5" cy="297.8984" fill="#84BE84" rx="3" ry="3" style="stroke: #038048; stroke-width: 1.0;"/><text fill="#000000" font-family="sans-serif" font-size="11" lengthAdjust="spacingAndGlyphs" text-decoration="underline" textLength="151" x="244.5" y="300.1582">getLogItems(aantal: int): Log[]</text><line style="stroke: #000000; stroke-width: 1.0;" x1="244.5" x2="395.5" y1="302.1582" y2="302.1582"/><!--class Persoon--><rect fill="#FEFECE" filter="url(#f4tdd3g)" height="370.2656" style="stroke: #A80036; stroke-width: 1.5;" width="315" x="436.5" y="59"/><ellipse cx="567.25" cy="75" fill="#ADD1B2" rx="11" ry="11" style="stroke: #A80036; stroke-width: 1.0;"/><path d="M571.7344,77.2188 Q571.6719,78.125 571.3359,78.8594 Q571,79.5938 570.4375,80.1094 Q569.875,80.625 569.0938,80.8984 Q568.3125,81.1719 567.3594,81.1719 Q566.2969,81.1719 565.4609,80.7813 Q564.625,80.3906 564.0625,79.6797 Q563.5,78.9688 563.2031,77.9688 Q562.9063,76.9688 562.9063,75.7813 L562.9063,74.1563 Q562.9063,72.9531 563.2188,71.9531 Q563.5313,70.9531 564.1172,70.2422 Q564.7031,69.5313 565.5234,69.1328 Q566.3438,68.7344 567.375,68.7344 Q568.375,68.7344 569.1484,69.0156 Q569.9219,69.2969 570.4766,69.8203 Q571.0313,70.3438 571.3438,71.1016 Q571.6563,71.8594 571.7344,72.8125 L569.4063,72.8125 Q569.375,72.2656 569.25,71.8594 Q569.125,71.4531 568.8828,71.1875 Q568.6406,70.9219 568.2656,70.7813 Q567.8906,70.6406 567.375,70.6406 Q566.8438,70.6406 566.4453,70.875 Q566.0469,71.1094 565.7813,71.5547 Q565.5156,72 565.3906,72.6563 Q565.2656,73.3125 565.2656,74.1406 L565.2656,75.7813 Q565.2656,77.5625 565.7734,78.4141 Q566.2813,79.2656 567.3594,79.2656 Q568.2813,79.2656 568.8125,78.7813 Q569.3438,78.2969 569.3906,77.2188 L571.7344,77.2188 Z "/><text fill="#000000" font-family="sans-serif" font-size="12" lengthAdjust="spacingAndGlyphs" textLength="45" x="587.75" y="79.1016">Persoon</text><line style="stroke: #A80036; stroke-width: 1.5;" x1="437.5" x2="750.5" y1="91" y2="91"/><ellipse cx="447.5" cy="102.9453" fill="none" rx="3" ry="3" style="stroke: #038048; stroke-width: 1.0;"/><text fill="#000000" font-family="sans-serif" font-size="11" lengthAdjust="spacingAndGlyphs" textLength="28" x="456.5" y="105.2051">id: int</text><ellipse cx="447.5" cy="115.8359" fill="none" rx="3" ry="3" style="stroke: #038048; stroke-width: 1.0;"/><text fill="#000000" font-family="sans-serif" font-size="11" lengthAdjust="spacingAndGlyphs" textLength="84" x="456.5" y="118.0957">voornaam: string</text><ellipse cx="447.5" cy="128.7266" fill="none" rx="3" ry="3" style="stroke: #038048; stroke-width: 1.0;"/><text fill="#000000" font-family="sans-serif" font-size="11" lengthAdjust="spacingAndGlyphs" textLength="107" x="456.5" y="130.9863">tussenvoegsel: string</text><ellipse cx="447.5" cy="141.6172" fill="none" rx="3" ry="3" style="stroke: #038048; stroke-width: 1.0;"/><text fill="#000000" font-family="sans-serif" font-size="11" lengthAdjust="spacingAndGlyphs" textLength="95" x="456.5" y="143.877">achternaam: string</text><ellipse cx="447.5" cy="154.5078" fill="none" rx="3" ry="3" style="stroke: #038048; stroke-width: 1.0;"/><text fill="#000000" font-family="sans-serif" font-size="11" lengthAdjust="spacingAndGlyphs" textLength="63" x="456.5" y="156.7676">email: string</text><ellipse cx="447.5" cy="167.3984" fill="none" rx="3" ry="3" style="stroke: #038048; stroke-width: 1.0;"/><text fill="#000000" font-family="sans-serif" font-size="11" lengthAdjust="spacingAndGlyphs" textLength="63" x="456.5" y="169.6582">adres: string</text><ellipse cx="447.5" cy="180.2891" fill="none" rx="3" ry="3" style="stroke: #038048; stroke-width: 1.0;"/><text fill="#000000" font-family="sans-serif" font-size="11" lengthAdjust="spacingAndGlyphs" textLength="81" x="456.5" y="182.5488">postcode: string</text><ellipse cx="447.5" cy="193.1797" fill="none" rx="3" ry="3" style="stroke: #038048; stroke-width: 1.0;"/><text fill="#000000" font-family="sans-serif" font-size="11" lengthAdjust="spacingAndGlyphs" textLength="92" x="456.5" y="195.4395">woonplaats: string</text><ellipse cx="447.5" cy="206.0703" fill="none" rx="3" ry="3" style="stroke: #038048; stroke-width: 1.0;"/><text fill="#000000" font-family="sans-serif" font-size="11" lengthAdjust="spacingAndGlyphs" textLength="95" x="456.5" y="208.3301">wachtwoord: string</text><ellipse cx="447.5" cy="218.9609" fill="none" rx="3" ry="3" style="stroke: #038048; stroke-width: 1.0;"/><text fill="#000000" font-family="sans-serif" font-size="11" lengthAdjust="spacingAndGlyphs" textLength="104" x="456.5" y="221.2207">geboortedatum: date</text><ellipse cx="447.5" cy="231.8516" fill="none" rx="3" ry="3" style="stroke: #038048; stroke-width: 1.0;"/><text fill="#000000" font-family="sans-serif" font-size="11" lengthAdjust="spacingAndGlyphs" textLength="78" x="456.5" y="234.1113">geslacht: string</text><ellipse cx="447.5" cy="244.7422" fill="none" rx="3" ry="3" style="stroke: #038048; stroke-width: 1.0;"/><text fill="#000000" font-family="sans-serif" font-size="11" lengthAdjust="spacingAndGlyphs" textLength="100" x="456.5" y="247.002">opmerkingen: string</text><ellipse cx="447.5" cy="257.6328" fill="none" rx="3" ry="3" style="stroke: #038048; stroke-width: 1.0;"/><text fill="#000000" font-family="sans-serif" font-size="11" lengthAdjust="spacingAndGlyphs" textLength="72" x="456.5" y="259.8926">lid_sinds: date</text><ellipse cx="447.5" cy="270.5234" fill="none" rx="3" ry="3" style="stroke: #038048; stroke-width: 1.0;"/><text fill="#000000" font-family="sans-serif" font-size="11" lengthAdjust="spacingAndGlyphs" textLength="59" x="456.5" y="272.7832">lid_tot: date</text><ellipse cx="447.5" cy="283.4141" fill="none" rx="3" ry="3" style="stroke: #038048; stroke-width: 1.0;"/><text fill="#000000" font-family="sans-serif" font-size="11" lengthAdjust="spacingAndGlyphs" textLength="73" x="456.5" y="285.6738">gumbode: bool</text><ellipse cx="447.5" cy="296.3047" fill="none" rx="3" ry="3" style="stroke: #038048; stroke-width: 1.0;"/><text fill="#000000" font-family="sans-serif" font-size="11" lengthAdjust="spacingAndGlyphs" textLength="49" x="456.5" y="298.5645">post: bool</text><ellipse cx="447.5" cy="309.1953" fill="#84BE84" rx="3" ry="3" style="stroke: #038048; stroke-width: 1.0;"/><text fill="#000000" font-family="sans-serif" font-size="11" lengthAdjust="spacingAndGlyphs" text-decoration="underline" textLength="167" x="456.5" y="311.4551">commit(persoon_id: int): Persoon</text><line style="stroke: #000000; stroke-width: 1.0;" x1="456.5" x2="623.5" y1="313.4551" y2="313.4551"/><rect fill="#F24D5C" height="6" style="stroke: #C82930; stroke-width: 1.0;" width="6" x="444.5" y="319.0859"/><text fill="#000000" font-family="sans-serif" font-size="11" lengthAdjust="spacingAndGlyphs" text-decoration="underline" textLength="289" x="456.5" y="324.3457">validate(input: array, persoon: Persoon): System\Validator</text><line style="stroke: #000000; stroke-width: 1.0;" x1="456.5" x2="745.5" y1="326.3457" y2="326.3457"/><ellipse cx="447.5" cy="334.9766" fill="#84BE84" rx="3" ry="3" style="stroke: #038048; stroke-width: 1.0;"/><text fill="#000000" font-family="sans-serif" font-size="11" lengthAdjust="spacingAndGlyphs" text-decoration="underline" textLength="160" x="456.5" y="337.2363">getMorrisLedenopbouw(): string</text><line style="stroke: #000000; stroke-width: 1.0;" x1="456.5" x2="616.5" y1="339.2363" y2="339.2363"/><line style="stroke: #A80036; stroke-width: 1.0; stroke-dasharray: 1.0,2.0;" x1="437.5" x2="750.5" y1="343.9219" y2="343.9219"/><ellipse cx="447.5" cy="355.8672" fill="#84BE84" rx="3" ry="3" style="stroke: #038048; stroke-width: 1.0;"/><text fill="#000000" font-family="sans-serif" font-size="11" lengthAdjust="spacingAndGlyphs" textLength="120" x="456.5" y="358.127">volledige_naam(): string</text><ellipse cx="447.5" cy="368.7578" fill="#84BE84" rx="3" ry="3" style="stroke: #038048; stroke-width: 1.0;"/><text fill="#000000" font-family="sans-serif" font-size="11" lengthAdjust="spacingAndGlyphs" textLength="90" x="456.5" y="371.0176">groepen(): Groep[]</text><ellipse cx="447.5" cy="381.6484" fill="#84BE84" rx="3" ry="3" style="stroke: #038048; stroke-width: 1.0;"/><text fill="#000000" font-family="sans-serif" font-size="11" lengthAdjust="spacingAndGlyphs" textLength="101" x="456.5" y="383.9082">lidstatussen(): array</text><ellipse cx="447.5" cy="394.5391" fill="#84BE84" rx="3" ry="3" style="stroke: #038048; stroke-width: 1.0;"/><text fill="#000000" font-family="sans-serif" font-size="11" lengthAdjust="spacingAndGlyphs" textLength="87" x="456.5" y="396.7988">lidstatus(): string</text><ellipse cx="447.5" cy="407.4297" fill="#84BE84" rx="3" ry="3" style="stroke: #038048; stroke-width: 1.0;"/><text fill="#000000" font-family="sans-serif" font-size="11" lengthAdjust="spacingAndGlyphs" textLength="86" x="456.5" y="409.6895">has_groep(): bool</text><ellipse cx="447.5" cy="420.3203" fill="#84BE84" rx="3" ry="3" style="stroke: #038048; stroke-width: 1.0;"/><text fill="#000000" font-family="sans-serif" font-size="11" lengthAdjust="spacingAndGlyphs" textLength="163" x="456.5" y="422.5801">has_groeptype(type: string): bool</text><!--class Rol--><rect fill="#FEFECE" filter="url(#f4tdd3g)" height="86.6719" style="stroke: #A80036; stroke-width: 1.5;" width="112" x="787" y="200.5"/><ellipse cx="830.35" cy="216.5" fill="#ADD1B2" rx="11" ry="11" style="stroke: #A80036; stroke-width: 1.0;"/><path d="M834.8344,218.7188 Q834.7719,219.625 834.4359,220.3594 Q834.1,221.0938 833.5375,221.6094 Q832.975,222.125 832.1938,222.3984 Q831.4125,222.6719 830.4594,222.6719 Q829.3969,222.6719 828.5609,222.2813 Q827.725,221.8906 827.1625,221.1797 Q826.6,220.4688 826.3031,219.4688 Q826.0063,218.4688 826.0063,217.2813 L826.0063,215.6563 Q826.0063,214.4531 826.3188,213.4531 Q826.6313,212.4531 827.2172,211.7422 Q827.8031,211.0313 828.6234,210.6328 Q829.4438,210.2344 830.475,210.2344 Q831.475,210.2344 832.2484,210.5156 Q833.0219,210.7969 833.5766,211.3203 Q834.1313,211.8438 834.4438,212.6016 Q834.7563,213.3594 834.8344,214.3125 L832.5063,214.3125 Q832.475,213.7656 832.35,213.3594 Q832.225,212.9531 831.9828,212.6875 Q831.7406,212.4219 831.3656,212.2813 Q830.9906,212.1406 830.475,212.1406 Q829.9438,212.1406 829.5453,212.375 Q829.1469,212.6094 828.8813,213.0547 Q828.6156,213.5 828.4906,214.1563 Q828.3656,214.8125 828.3656,215.6406 L828.3656,217.2813 Q828.3656,219.0625 828.8734,219.9141 Q829.3813,220.7656 830.4594,220.7656 Q831.3813,220.7656 831.9125,220.2813 Q832.4438,219.7969 832.4906,218.7188 L834.8344,218.7188 Z "/><text fill="#000000" font-family="sans-serif" font-size="12" lengthAdjust="spacingAndGlyphs" textLength="17" x="850.65" y="220.6016">Rol</text><line style="stroke: #A80036; stroke-width: 1.5;" x1="788" x2="898" y1="232.5" y2="232.5"/><ellipse cx="798" cy="244.4453" fill="none" rx="3" ry="3" style="stroke: #038048; stroke-width: 1.0;"/><text fill="#000000" font-family="sans-serif" font-size="11" lengthAdjust="spacingAndGlyphs" text-decoration="underline" textLength="86" x="807" y="246.7051">VOORZITTER: int</text><line style="stroke: #000000; stroke-width: 1.0;" x1="807" x2="893" y1="248.7051" y2="248.7051"/><line style="stroke: #A80036; stroke-width: 1.0; stroke-dasharray: 1.0,2.0;" x1="788" x2="898" y1="253.3906" y2="253.3906"/><ellipse cx="798" cy="265.3359" fill="none" rx="3" ry="3" style="stroke: #038048; stroke-width: 1.0;"/><text fill="#000000" font-family="sans-serif" font-size="11" lengthAdjust="spacingAndGlyphs" textLength="28" x="807" y="267.5957">id: int</text><ellipse cx="798" cy="278.2266" fill="none" rx="3" ry="3" style="stroke: #038048; stroke-width: 1.0;"/><text fill="#000000" font-family="sans-serif" font-size="11" lengthAdjust="spacingAndGlyphs" textLength="63" x="807" y="280.4863">naam: string</text><!--class Token--><rect fill="#FEFECE" filter="url(#f4tdd3g)" height="176.9063" style="stroke: #A80036; stroke-width: 1.5;" width="361" x="283.5" y="489"/><ellipse cx="443.25" cy="505" fill="#ADD1B2" rx="11" ry="11" style="stroke: #A80036; stroke-width: 1.0;"/><path d="M447.7344,507.2188 Q447.6719,508.125 447.3359,508.8594 Q447,509.5938 446.4375,510.1094 Q445.875,510.625 445.0938,510.8984 Q444.3125,511.1719 443.3594,511.1719 Q442.2969,511.1719 441.4609,510.7813 Q440.625,510.3906 440.0625,509.6797 Q439.5,508.9688 439.2031,507.9688 Q438.9063,506.9688 438.9063,505.7813 L438.9063,504.1563 Q438.9063,502.9531 439.2188,501.9531 Q439.5313,500.9531 440.1172,500.2422 Q440.7031,499.5313 441.5234,499.1328 Q442.3438,498.7344 443.375,498.7344 Q444.375,498.7344 445.1484,499.0156 Q445.9219,499.2969 446.4766,499.8203 Q447.0313,500.3438 447.3438,501.1016 Q447.6563,501.8594 447.7344,502.8125 L445.4063,502.8125 Q445.375,502.2656 445.25,501.8594 Q445.125,501.4531 444.8828,501.1875 Q444.6406,500.9219 444.2656,500.7813 Q443.8906,500.6406 443.375,500.6406 Q442.8438,500.6406 442.4453,500.875 Q442.0469,501.1094 441.7813,501.5547 Q441.5156,502 441.3906,502.6563 Q441.2656,503.3125 441.2656,504.1406 L441.2656,505.7813 Q441.2656,507.5625 441.7734,508.4141 Q442.2813,509.2656 443.3594,509.2656 Q444.2813,509.2656 444.8125,508.7813 Q445.3438,508.2969 445.3906,507.2188 L447.7344,507.2188 Z "/><text fill="#000000" font-family="sans-serif" font-size="12" lengthAdjust="spacingAndGlyphs" textLength="33" x="463.75" y="509.1016">Token</text><line style="stroke: #A80036; stroke-width: 1.5;" x1="284.5" x2="643.5" y1="521" y2="521"/><ellipse cx="294.5" cy="532.9453" fill="none" rx="3" ry="3" style="stroke: #038048; stroke-width: 1.0;"/><text fill="#000000" font-family="sans-serif" font-size="11" lengthAdjust="spacingAndGlyphs" textLength="28" x="303.5" y="535.2051">id: int</text><ellipse cx="294.5" cy="545.8359" fill="none" rx="3" ry="3" style="stroke: #038048; stroke-width: 1.0;"/><text fill="#000000" font-family="sans-serif" font-size="11" lengthAdjust="spacingAndGlyphs" textLength="63" x="303.5" y="548.0957">token: string</text><ellipse cx="294.5" cy="558.7266" fill="none" rx="3" ry="3" style="stroke: #038048; stroke-width: 1.0;"/><text fill="#000000" font-family="sans-serif" font-size="11" lengthAdjust="spacingAndGlyphs" textLength="104" x="303.5" y="560.9863">created_at: datetime</text><ellipse cx="294.5" cy="571.6172" fill="none" rx="3" ry="3" style="stroke: #038048; stroke-width: 1.0;"/><text fill="#000000" font-family="sans-serif" font-size="11" lengthAdjust="spacingAndGlyphs" textLength="58" x="303.5" y="573.877">lifetime: int</text><ellipse cx="294.5" cy="584.5078" fill="none" rx="3" ry="3" style="stroke: #038048; stroke-width: 1.0;"/><text fill="#000000" font-family="sans-serif" font-size="11" lengthAdjust="spacingAndGlyphs" textLength="59" x="303.5" y="586.7676">code: string</text><ellipse cx="294.5" cy="597.3984" fill="none" rx="3" ry="3" style="stroke: #038048; stroke-width: 1.0;"/><text fill="#000000" font-family="sans-serif" font-size="11" lengthAdjust="spacingAndGlyphs" textLength="73" x="303.5" y="599.6582">persoon_id: int</text><ellipse cx="294.5" cy="610.2891" fill="none" rx="3" ry="3" style="stroke: #038048; stroke-width: 1.0;"/><text fill="#000000" font-family="sans-serif" font-size="11" lengthAdjust="spacingAndGlyphs" textLength="63" x="303.5" y="612.5488">email: string</text><line style="stroke: #A80036; stroke-width: 1.5;" x1="284.5" x2="643.5" y1="619.2344" y2="619.2344"/><ellipse cx="294.5" cy="631.1797" fill="#84BE84" rx="3" ry="3" style="stroke: #038048; stroke-width: 1.0;"/><text fill="#000000" font-family="sans-serif" font-size="11" lengthAdjust="spacingAndGlyphs" text-decoration="underline" textLength="335" x="303.5" y="633.4395">create(persoon_id: int, email: string, lifetime: int, code: string): bool</text><line style="stroke: #000000; stroke-width: 1.0;" x1="303.5" x2="638.5" y1="635.4395" y2="635.4395"/><ellipse cx="294.5" cy="644.0703" fill="#84BE84" rx="3" ry="3" style="stroke: #038048; stroke-width: 1.0;"/><text fill="#000000" font-family="sans-serif" font-size="11" lengthAdjust="spacingAndGlyphs" text-decoration="underline" textLength="179" x="303.5" y="646.3301">forget(persoon_id: int, email: string)</text><line style="stroke: #000000; stroke-width: 1.0;" x1="303.5" x2="482.5" y1="648.3301" y2="648.3301"/><ellipse cx="294.5" cy="656.9609" fill="#84BE84" rx="3" ry="3" style="stroke: #038048; stroke-width: 1.0;"/><text fill="#000000" font-family="sans-serif" font-size="11" lengthAdjust="spacingAndGlyphs" text-decoration="underline" textLength="214" x="303.5" y="659.2207">resetPassword(token: string, email: string)</text><line style="stroke: #000000; stroke-width: 1.0;" x1="303.5" x2="517.5" y1="661.2207" y2="661.2207"/><!--class persoon_evenement--><rect fill="#FEFECE" filter="url(#f4tdd3g)" height="112.4531" style="stroke: #A80036; stroke-width: 1.5;" width="140" x="1291" y="188"/><ellipse cx="1306" cy="204" fill="#ADD1B2" rx="11" ry="11" style="stroke: #A80036; stroke-width: 1.0;"/><path d="M1310.4844,206.2188 Q1310.4219,207.125 1310.0859,207.8594 Q1309.75,208.5938 1309.1875,209.1094 Q1308.625,209.625 1307.8438,209.8984 Q1307.0625,210.1719 1306.1094,210.1719 Q1305.0469,210.1719 1304.2109,209.7813 Q1303.375,209.3906 1302.8125,208.6797 Q1302.25,207.9688 1301.9531,206.9688 Q1301.6563,205.9688 1301.6563,204.7813 L1301.6563,203.1563 Q1301.6563,201.9531 1301.9688,200.9531 Q1302.2813,199.9531 1302.8672,199.2422 Q1303.4531,198.5313 1304.2734,198.1328 Q1305.0938,197.7344 1306.125,197.7344 Q1307.125,197.7344 1307.8984,198.0156 Q1308.6719,198.2969 1309.2266,198.8203 Q1309.7813,199.3438 1310.0938,200.1016 Q1310.4063,200.8594 1310.4844,201.8125 L1308.1563,201.8125 Q1308.125,201.2656 1308,200.8594 Q1307.875,200.4531 1307.6328,200.1875 Q1307.3906,199.9219 1307.0156,199.7813 Q1306.6406,199.6406 1306.125,199.6406 Q1305.5938,199.6406 1305.1953,199.875 Q1304.7969,200.1094 1304.5313,200.5547 Q1304.2656,201 1304.1406,201.6563 Q1304.0156,202.3125 1304.0156,203.1406 L1304.0156,204.7813 Q1304.0156,206.5625 1304.5234,207.4141 Q1305.0313,208.2656 1306.1094,208.2656 Q1307.0313,208.2656 1307.5625,207.7813 Q1308.0938,207.2969 1308.1406,206.2188 L1310.4844,206.2188 Z "/><text fill="#000000" font-family="sans-serif" font-size="12" lengthAdjust="spacingAndGlyphs" textLength="108" x="1320" y="208.1016">persoon_evenement</text><line style="stroke: #A80036; stroke-width: 1.5;" x1="1292" x2="1430" y1="220" y2="220"/><text fill="#000000" font-family="sans-serif" font-size="11" lengthAdjust="spacingAndGlyphs" textLength="73" x="1297" y="234.2051">persoon_id: int</text><text fill="#000000" font-family="sans-serif" font-size="11" lengthAdjust="spacingAndGlyphs" textLength="88" x="1297" y="247.0957">evenement_id: int</text><text fill="#000000" font-family="sans-serif" font-size="11" lengthAdjust="spacingAndGlyphs" textLength="64" x="1297" y="259.9863">betaald: bool</text><text fill="#000000" font-family="sans-serif" font-size="11" lengthAdjust="spacingAndGlyphs" textLength="119" x="1297" y="272.877">datum_inschrijven: date</text><text fill="#000000" font-family="sans-serif" font-size="11" lengthAdjust="spacingAndGlyphs" textLength="102" x="1297" y="285.7676">datum_betaald: date</text><line style="stroke: #A80036; stroke-width: 1.5;" x1="1292" x2="1430" y1="292.4531" y2="292.4531"/><!--class persoon_groep--><rect fill="#FEFECE" filter="url(#f4tdd3g)" height="86.6719" style="stroke: #A80036; stroke-width: 1.5;" width="112" x="1466" y="200.5"/><ellipse cx="1481" cy="216.5" fill="#ADD1B2" rx="11" ry="11" style="stroke: #A80036; stroke-width: 1.0;"/><path d="M1485.4844,218.7188 Q1485.4219,219.625 1485.0859,220.3594 Q1484.75,221.0938 1484.1875,221.6094 Q1483.625,222.125 1482.8438,222.3984 Q1482.0625,222.6719 1481.1094,222.6719 Q1480.0469,222.6719 1479.2109,222.2813 Q1478.375,221.8906 1477.8125,221.1797 Q1477.25,220.4688 1476.9531,219.4688 Q1476.6563,218.4688 1476.6563,217.2813 L1476.6563,215.6563 Q1476.6563,214.4531 1476.9688,213.4531 Q1477.2813,212.4531 1477.8672,211.7422 Q1478.4531,211.0313 1479.2734,210.6328 Q1480.0938,210.2344 1481.125,210.2344 Q1482.125,210.2344 1482.8984,210.5156 Q1483.6719,210.7969 1484.2266,211.3203 Q1484.7813,211.8438 1485.0938,212.6016 Q1485.4063,213.3594 1485.4844,214.3125 L1483.1563,214.3125 Q1483.125,213.7656 1483,213.3594 Q1482.875,212.9531 1482.6328,212.6875 Q1482.3906,212.4219 1482.0156,212.2813 Q1481.6406,212.1406 1481.125,212.1406 Q1480.5938,212.1406 1480.1953,212.375 Q1479.7969,212.6094 1479.5313,213.0547 Q1479.2656,213.5 1479.1406,214.1563 Q1479.0156,214.8125 1479.0156,215.6406 L1479.0156,217.2813 Q1479.0156,219.0625 1479.5234,219.9141 Q1480.0313,220.7656 1481.1094,220.7656 Q1482.0313,220.7656 1482.5625,220.2813 Q1483.0938,219.7969 1483.1406,218.7188 L1485.4844,218.7188 Z "/><text fill="#000000" font-family="sans-serif" font-size="12" lengthAdjust="spacingAndGlyphs" textLength="80" x="1495" y="220.6016">persoon_groep</text><line style="stroke: #A80036; stroke-width: 1.5;" x1="1467" x2="1577" y1="232.5" y2="232.5"/><text fill="#000000" font-family="sans-serif" font-size="11" lengthAdjust="spacingAndGlyphs" textLength="73" x="1472" y="246.7051">persoon_id: int</text><text fill="#000000" font-family="sans-serif" font-size="11" lengthAdjust="spacingAndGlyphs" textLength="61" x="1472" y="259.5957">groep_id: int</text><text fill="#000000" font-family="sans-serif" font-size="11" lengthAdjust="spacingAndGlyphs" textLength="46" x="1472" y="272.4863">rol_id: int</text><line style="stroke: #A80036; stroke-width: 1.5;" x1="1467" x2="1577" y1="279.1719" y2="279.1719"/><!--class persoon_lidstatus--><rect fill="#FEFECE" filter="url(#f4tdd3g)" height="99.5625" style="stroke: #A80036; stroke-width: 1.5;" width="128" x="1297" y="527.5"/><ellipse cx="1312" cy="543.5" fill="#ADD1B2" rx="11" ry="11" style="stroke: #A80036; stroke-width: 1.0;"/><path d="M1316.4844,545.7188 Q1316.4219,546.625 1316.0859,547.3594 Q1315.75,548.0938 1315.1875,548.6094 Q1314.625,549.125 1313.8438,549.3984 Q1313.0625,549.6719 1312.1094,549.6719 Q1311.0469,549.6719 1310.2109,549.2813 Q1309.375,548.8906 1308.8125,548.1797 Q1308.25,547.4688 1307.9531,546.4688 Q1307.6563,545.4688 1307.6563,544.2813 L1307.6563,542.6563 Q1307.6563,541.4531 1307.9688,540.4531 Q1308.2813,539.4531 1308.8672,538.7422 Q1309.4531,538.0313 1310.2734,537.6328 Q1311.0938,537.2344 1312.125,537.2344 Q1313.125,537.2344 1313.8984,537.5156 Q1314.6719,537.7969 1315.2266,538.3203 Q1315.7813,538.8438 1316.0938,539.6016 Q1316.4063,540.3594 1316.4844,541.3125 L1314.1563,541.3125 Q1314.125,540.7656 1314,540.3594 Q1313.875,539.9531 1313.6328,539.6875 Q1313.3906,539.4219 1313.0156,539.2813 Q1312.6406,539.1406 1312.125,539.1406 Q1311.5938,539.1406 1311.1953,539.375 Q1310.7969,539.6094 1310.5313,540.0547 Q1310.2656,540.5 1310.1406,541.1563 Q1310.0156,541.8125 1310.0156,542.6406 L1310.0156,544.2813 Q1310.0156,546.0625 1310.5234,546.9141 Q1311.0313,547.7656 1312.1094,547.7656 Q1313.0313,547.7656 1313.5625,547.2813 Q1314.0938,546.7969 1314.1406,545.7188 L1316.4844,545.7188 Z "/><text fill="#000000" font-family="sans-serif" font-size="12" lengthAdjust="spacingAndGlyphs" textLength="96" x="1326" y="547.6016">persoon_lidstatus</text><line style="stroke: #A80036; stroke-width: 1.5;" x1="1298" x2="1424" y1="559.5" y2="559.5"/><text fill="#000000" font-family="sans-serif" font-size="11" lengthAdjust="spacingAndGlyphs" textLength="28" x="1303" y="573.7051">id: int</text><text fill="#000000" font-family="sans-serif" font-size="11" lengthAdjust="spacingAndGlyphs" textLength="73" x="1303" y="586.5957">persoon_id: int</text><text fill="#000000" font-family="sans-serif" font-size="11" lengthAdjust="spacingAndGlyphs" textLength="54" x="1303" y="599.4863">jaar: string</text><text fill="#000000" font-family="sans-serif" font-size="11" lengthAdjust="spacingAndGlyphs" textLength="77" x="1303" y="612.377">lidstatus_id: int</text><line style="stroke: #A80036; stroke-width: 1.5;" x1="1298" x2="1424" y1="619.0625" y2="619.0625"/></g></svg>