<?xml version="1.0" encoding="UTF-8" standalone="no"?><svg xmlns="http://www.w3.org/2000/svg" xmlns:xlink="http://www.w3.org/1999/xlink" contentScriptType="application/ecmascript" contentStyleType="text/css" height="1133px" preserveAspectRatio="none" style="width:1092px;height:1133px;" version="1.1" viewBox="0 0 1092 1133" width="1092px" zoomAndPan="magnify"><defs><filter height="300%" id="fefvcvl" width="300%" x="-1" y="-1"><feGaussianBlur result="blurOut" stdDeviation="2.0"/><feColorMatrix in="blurOut" result="blurOut2" type="matrix" values="0 0 0 0 0 0 0 0 0 0 0 0 0 0 0 0 0 0 .4 0"/><feOffset dx="4.0" dy="4.0" in="blurOut2" result="blurOut3"/><feBlend in="SourceGraphic" in2="blurOut3" mode="normal"/></filter></defs><g><!--entity member--><ellipse cx="208" cy="775" fill="#FEFECE" filter="url(#fefvcvl)" rx="8" ry="8" style="stroke: #A80036; stroke-width: 2.0;"/><path d="M208,783 L208,810 M195,791 L221,791 M208,810 L195,825 M208,810 L221,825 " fill="#FEFECE" filter="url(#fefvcvl)" style="stroke: #A80036; stroke-width: 2.0;"/><text fill="#000000" font-family="sans-serif" font-size="14" lengthAdjust="spacingAndGlyphs" textLength="19" x="198.5" y="844.9883">Lid</text><!--entity guest--><ellipse cx="34.5" cy="866" fill="#FEFECE" filter="url(#fefvcvl)" rx="8" ry="8" style="stroke: #A80036; stroke-width: 2.0;"/><path d="M34.5,874 L34.5,901 M21.5,882 L47.5,882 M34.5,901 L21.5,916 M34.5,901 L47.5,916 " fill="#FEFECE" filter="url(#fefvcvl)" style="stroke: #A80036; stroke-width: 2.0;"/><text fill="#000000" font-family="sans-serif" font-size="14" lengthAdjust="spacingAndGlyphs" textLength="57" x="6" y="935.9883">Bezoeker</text><!--entity groupchief--><ellipse cx="457.5" cy="455" fill="#FEFECE" filter="url(#fefvcvl)" rx="8" ry="8" style="stroke: #A80036; stroke-width: 2.0;"/><path d="M457.5,463 L457.5,490 M444.5,471 L470.5,471 M457.5,490 L444.5,505 M457.5,490 L470.5,505 " fill="#FEFECE" filter="url(#fefvcvl)" style="stroke: #A80036; stroke-width: 2.0;"/><text fill="#000000" font-family="sans-serif" font-size="14" lengthAdjust="spacingAndGlyphs" textLength="128" x="393.5" y="524.9883">Commissievoorzitter</text><!--entity board--><ellipse cx="720" cy="317" fill="#FEFECE" filter="url(#fefvcvl)" rx="8" ry="8" style="stroke: #A80036; stroke-width: 2.0;"/><path d="M720,325 L720,352 M707,333 L733,333 M720,352 L707,367 M720,352 L733,367 " fill="#FEFECE" filter="url(#fefvcvl)" style="stroke: #A80036; stroke-width: 2.0;"/><text fill="#000000" font-family="sans-serif" font-size="14" lengthAdjust="spacingAndGlyphs" textLength="49" x="695.5" y="386.9883">Bestuur</text><ellipse cx="208.1838" cy="897.601" fill="#FEFECE" filter="url(#fefvcvl)" rx="41.1838" ry="14.601" style="stroke: #A80036; stroke-width: 1.5;"/><text fill="#000000" font-family="sans-serif" font-size="14" lengthAdjust="spacingAndGlyphs" textLength="54" x="181.1838" y="902.3041">Inloggen</text><ellipse cx="207.9956" cy="966.3991" fill="#FEFECE" filter="url(#fefvcvl)" rx="84.9956" ry="19.3991" style="stroke: #A80036; stroke-width: 1.5;"/><text fill="#000000" font-family="sans-serif" font-size="14" lengthAdjust="spacingAndGlyphs" textLength="142" x="136.9956" y="971.1022">Wachtwoord opvragen</text><ellipse cx="457.507" cy="580.7014" fill="#FEFECE" filter="url(#fefvcvl)" rx="76.507" ry="17.7014" style="stroke: #A80036; stroke-width: 1.5;"/><text fill="#000000" font-family="sans-serif" font-size="14" lengthAdjust="spacingAndGlyphs" textLength="122" x="396.507" y="585.4045">Dashboard bekijken</text><ellipse cx="457.6429" cy="656.3286" fill="#FEFECE" filter="url(#fefvcvl)" rx="104.6429" ry="23.3286" style="stroke: #A80036; stroke-width: 1.5;"/><text fill="#000000" font-family="sans-serif" font-size="14" lengthAdjust="spacingAndGlyphs" textLength="186" x="364.6429" y="661.0317">Inzien accountgebeurtenissen</text><ellipse cx="457.4844" cy="734.2969" fill="#FEFECE" filter="url(#fefvcvl)" rx="81.9844" ry="18.7969" style="stroke: #A80036; stroke-width: 1.5;"/><text fill="#000000" font-family="sans-serif" font-size="14" lengthAdjust="spacingAndGlyphs" textLength="135" x="389.9844" y="739">Eigen gegevens inzien</text><ellipse cx="457.5945" cy="806.6189" fill="#FEFECE" filter="url(#fefvcvl)" rx="78.5945" ry="18.1189" style="stroke: #A80036; stroke-width: 1.5;"/><text fill="#000000" font-family="sans-serif" font-size="14" lengthAdjust="spacingAndGlyphs" textLength="127" x="394.0945" y="811.322">Eigen groepen inzien</text><ellipse cx="457.3467" cy="880.5693" fill="#FEFECE" filter="url(#fefvcvl)" rx="93.3467" ry="21.0693" style="stroke: #A80036; stroke-width: 1.5;"/><text fill="#000000" font-family="sans-serif" font-size="14" lengthAdjust="spacingAndGlyphs" textLength="161" x="376.8467" y="885.2725">Eigen lidmaatschap inzien</text><ellipse cx="457.4788" cy="958.6958" fill="#FEFECE" filter="url(#fefvcvl)" rx="96.4788" ry="21.6958" style="stroke: #A80036; stroke-width: 1.5;"/><text fill="#000000" font-family="sans-serif" font-size="14" lengthAdjust="spacingAndGlyphs" textLength="168" x="373.4788" y="963.3989">Eigen gegevens aanpassen</text><ellipse cx="457.3162" cy="1038.4632" fill="#FEFECE" filter="url(#fefvcvl)" rx="102.8162" ry="22.9632" style="stroke: #A80036; stroke-width: 1.5;"/><text fill="#000000" font-family="sans-serif" font-size="14" lengthAdjust="spacingAndGlyphs" textLength="182" x="366.3162" y="1043.1664">Teruglezen e-mails mailchimp</text><ellipse cx="457.7193" cy="1111.601" fill="#FEFECE" filter="url(#fefvcvl)" rx="44.7193" ry="14.601" style="stroke: #A80036; stroke-width: 1.5;"/><text fill="#000000" font-family="sans-serif" font-size="14" lengthAdjust="spacingAndGlyphs" textLength="59" x="428.2193" y="1116.3041">Uitloggen</text><ellipse cx="719.829" cy="447.4658" fill="#FEFECE" filter="url(#fefvcvl)" rx="97.829" ry="21.9658" style="stroke: #A80036; stroke-width: 1.5;"/><text fill="#000000" font-family="sans-serif" font-size="14" lengthAdjust="spacingAndGlyphs" textLength="171" x="634.329" y="452.1689">Bewerken commissiedetails</text><ellipse cx="719.8017" cy="525.3603" fill="#FEFECE" filter="url(#fefvcvl)" rx="89.8017" ry="20.3603" style="stroke: #A80036; stroke-width: 1.5;"/><text fill="#000000" font-family="sans-serif" font-size="14" lengthAdjust="spacingAndGlyphs" textLength="153" x="643.3017" y="530.0635">Beheren commissieleden</text><ellipse cx="719.8784" cy="603.3757" fill="#FEFECE" filter="url(#fefvcvl)" rx="97.3784" ry="21.8757" style="stroke: #A80036; stroke-width: 1.5;"/><text fill="#000000" font-family="sans-serif" font-size="14" lengthAdjust="spacingAndGlyphs" textLength="170" x="634.8784" y="608.0788">Toevoegen commissieleden</text><ellipse cx="981.339" cy="26.3678" fill="#FEFECE" filter="url(#fefvcvl)" rx="77.339" ry="17.8678" style="stroke: #A80036; stroke-width: 1.5;"/><text fill="#000000" font-family="sans-serif" font-size="14" lengthAdjust="spacingAndGlyphs" textLength="124" x="919.339" y="31.0709">Inzien ledenopbouw</text><ellipse cx="981.5111" cy="96.3022" fill="#FEFECE" filter="url(#fefvcvl)" rx="72.0111" ry="16.8022" style="stroke: #A80036; stroke-width: 1.5;"/><text fill="#000000" font-family="sans-serif" font-size="14" lengthAdjust="spacingAndGlyphs" textLength="111" x="926.0111" y="101.0053">Inzien systeemlog</text><ellipse cx="981.4569" cy="169.3914" fill="#FEFECE" filter="url(#fefvcvl)" rx="92.4569" ry="20.8914" style="stroke: #A80036; stroke-width: 1.5;"/><text fill="#000000" font-family="sans-serif" font-size="14" lengthAdjust="spacingAndGlyphs" textLength="159" x="901.9569" y="174.0945">Bewerken gegevens leden</text><ellipse cx="981.518" cy="241.7036" fill="#FEFECE" filter="url(#fefvcvl)" rx="66.518" ry="15.7036" style="stroke: #A80036; stroke-width: 1.5;"/><text fill="#000000" font-family="sans-serif" font-size="14" lengthAdjust="spacingAndGlyphs" textLength="97" x="933.018" y="246.4067">Inzien alle leden</text><ellipse cx="981.4844" cy="311.2969" fill="#FEFECE" filter="url(#fefvcvl)" rx="81.9844" ry="18.7969" style="stroke: #A80036; stroke-width: 1.5;"/><text fill="#000000" font-family="sans-serif" font-size="14" lengthAdjust="spacingAndGlyphs" textLength="135" x="913.9844" y="316">Inzien gegevens leden</text><ellipse cx="981.363" cy="385.5726" fill="#FEFECE" filter="url(#fefvcvl)" rx="85.863" ry="19.5726" style="stroke: #A80036; stroke-width: 1.5;"/><text fill="#000000" font-family="sans-serif" font-size="14" lengthAdjust="spacingAndGlyphs" textLength="144" x="909.363" y="390.2757">Wijzigen lidstatus leden</text><ellipse cx="981.5631" cy="459.3126" fill="#FEFECE" filter="url(#fefvcvl)" rx="84.5631" ry="19.3126" style="stroke: #A80036; stroke-width: 1.5;"/><text fill="#000000" font-family="sans-serif" font-size="14" lengthAdjust="spacingAndGlyphs" textLength="141" x="911.0631" y="464.0157">Wijzigen groepen leden</text><ellipse cx="981.7288" cy="537.6458" fill="#FEFECE" filter="url(#fefvcvl)" rx="103.7288" ry="23.1458" style="stroke: #A80036; stroke-width: 1.5;"/><text fill="#000000" font-family="sans-serif" font-size="14" lengthAdjust="spacingAndGlyphs" textLength="184" x="889.7288" y="542.3489">Sychroniseren met MailChimp</text><ellipse cx="981.2978" cy="615.6596" fill="#FEFECE" filter="url(#fefvcvl)" rx="86.2978" ry="19.6596" style="stroke: #A80036; stroke-width: 1.5;"/><text fill="#000000" font-family="sans-serif" font-size="14" lengthAdjust="spacingAndGlyphs" textLength="145" x="908.7978" y="620.3627">Genereren adressenlijst</text><ellipse cx="981.6836" cy="692.7367" fill="#FEFECE" filter="url(#fefvcvl)" rx="99.1836" ry="22.2367" style="stroke: #A80036; stroke-width: 1.5;"/><text fill="#000000" font-family="sans-serif" font-size="14" lengthAdjust="spacingAndGlyphs" textLength="174" x="894.6836" y="697.4398">Genereren ALV presentielijst</text><path d="M80.8394,873.442 C118.022,853.713 168.346,827.01 192.666,814.106 " fill="none" style="stroke: #A80036; stroke-width: 1.0;"/><polygon fill="none" points="84.0025,879.688,63.0544,882.879,77.4404,867.321,84.0025,879.688" style="stroke: #A80036; stroke-width: 1.0;"/><path d="M230.567,747.478 C253.782,690.342 295.303,604.007 353,545.5 C364.618,533.719 379.083,523.539 393.48,515.11 " fill="none" style="stroke: #A80036; stroke-width: 1.0;"/><polygon fill="none" points="236.965,750.334,223.122,766.376,223.939,745.202,236.965,750.334" style="stroke: #A80036; stroke-width: 1.0;"/><path d="M539.268,443.713 C593.178,415.154 660.374,379.557 695.351,361.028 " fill="none" style="stroke: #A80036; stroke-width: 1.0;"/><polygon fill="none" points="542.51,449.917,521.56,453.094,535.956,437.546,542.51,449.917" style="stroke: #A80036; stroke-width: 1.0;"/><path d="M63.0544,897.5 C89.5487,897.5 130.077,897.5 161.386,897.5 " fill="none" style="stroke: #A80036; stroke-width: 1.0;"/><polygon fill="#A80036" points="166.723,897.5,157.723,893.5,161.723,897.5,157.723,901.5,166.723,897.5" style="stroke: #A80036; stroke-width: 1.0;"/><path d="M63.0544,908.586 C89.2088,919.109 129.039,935.134 160.177,947.661 " fill="none" style="stroke: #A80036; stroke-width: 1.0;"/><polygon fill="#A80036" points="165.096,949.641,158.2406,942.5696,160.4577,947.774,155.2534,949.991,165.096,949.641" style="stroke: #A80036; stroke-width: 1.0;"/><path d="M223.146,778.256 C245.31,736.764 292.063,659.506 353,615.5 C365.849,606.221 381.336,599.271 396.37,594.117 " fill="none" style="stroke: #A80036; stroke-width: 1.0;"/><polygon fill="#A80036" points="401.447,592.438,391.6459,591.4689,396.7003,594.0093,394.16,599.0637,401.447,592.438" style="stroke: #A80036; stroke-width: 1.0;"/><path d="M223.257,793.807 C248.169,772.104 301.856,727.411 353,698.5 C366.271,690.998 381.151,684.143 395.401,678.245 " fill="none" style="stroke: #A80036; stroke-width: 1.0;"/><polygon fill="#A80036" points="400.207,676.282,390.3627,675.9837,395.5785,678.1734,393.3889,683.3893,400.207,676.282" style="stroke: #A80036; stroke-width: 1.0;"/><path d="M223.016,802.423 C256.585,792.657 343.089,767.492 400.849,750.689 " fill="none" style="stroke: #A80036; stroke-width: 1.0;"/><polygon fill="#A80036" points="405.65,749.293,395.8908,747.9669,400.8491,750.69,398.126,755.6483,405.65,749.293" style="stroke: #A80036; stroke-width: 1.0;"/><path d="M223.016,806.5 C251.596,806.5 318.546,806.5 373.46,806.5 " fill="none" style="stroke: #A80036; stroke-width: 1.0;"/><polygon fill="#A80036" points="378.735,806.5,369.735,802.5,373.735,806.5,369.735,810.5,378.735,806.5" style="stroke: #A80036; stroke-width: 1.0;"/><path d="M223.016,810.691 C255.64,820.445 338.261,845.148 395.905,862.383 " fill="none" style="stroke: #A80036; stroke-width: 1.0;"/><polygon fill="#A80036" points="400.705,863.818,393.2271,857.4085,395.9143,862.3864,390.9365,865.0736,400.705,863.818" style="stroke: #A80036; stroke-width: 1.0;"/><path d="M223.047,815.611 C240.036,826.801 269.302,846.626 293,865.5 C321.063,887.851 322.351,900.852 353,919.5 C365.822,927.301 380.463,933.975 394.617,939.481 " fill="none" style="stroke: #A80036; stroke-width: 1.0;"/><polygon fill="#A80036" points="399.395,941.304,392.4128,934.3578,394.7236,939.5212,389.5603,941.832,399.395,941.304" style="stroke: #A80036; stroke-width: 1.0;"/><path d="M223.24,813.437 C241.51,822.955 273.201,841.635 293,865.5 C334.147,915.097 306.319,953.073 353,997.5 C362.27,1006.322 373.668,1013.323 385.473,1018.856 " fill="none" style="stroke: #A80036; stroke-width: 1.0;"/><polygon fill="#A80036" points="390.192,1020.982,383.6282,1013.6392,385.633,1018.9289,380.3433,1020.9337,390.192,1020.982" style="stroke: #A80036; stroke-width: 1.0;"/><path d="M223.174,812.684 C241.972,821.612 274.88,839.898 293,865.5 C350.065,946.128 284.085,1008.734 353,1079.5 C367.758,1094.6544 389.525,1102.6696 409.295,1106.8935 " fill="none" style="stroke: #A80036; stroke-width: 1.0;"/><polygon fill="#A80036" points="414.272,1107.8877,406.2289,1102.2036,409.3687,1106.9091,404.6632,1110.0489,414.272,1107.8877" style="stroke: #A80036; stroke-width: 1.0;"/><path d="M521.56,477.059 C554.856,472.074 596.22,465.882 632.471,460.454 " fill="none" style="stroke: #A80036; stroke-width: 1.0;"/><polygon fill="#A80036" points="637.781,459.659,628.2874,457.0375,632.8363,460.4003,629.4735,464.9491,637.781,459.659" style="stroke: #A80036; stroke-width: 1.0;"/><path d="M521.56,495.941 C556.866,501.227 601.243,507.87 638.977,513.52 " fill="none" style="stroke: #A80036; stroke-width: 1.0;"/><polygon fill="#A80036" points="644.018,514.274,635.7105,508.9839,639.0733,513.5327,634.5244,516.8955,644.018,514.274" style="stroke: #A80036; stroke-width: 1.0;"/><path d="M521.838,517.213 C552.011,531.617 588.703,548.805 622,563.5 C636.224,569.778 651.746,576.316 666.118,582.243 " fill="none" style="stroke: #A80036; stroke-width: 1.0;"/><polygon fill="#A80036" points="670.945,584.228,664.1442,577.1041,666.3212,582.3253,661.1,584.5023,670.945,584.228" style="stroke: #A80036; stroke-width: 1.0;"/><path d="M733.228,306.825 C753.443,244.957 799.586,128.985 878,62.5 C889.632,52.64 904.142,45.41 918.552,40.15 " fill="none" style="stroke: #A80036; stroke-width: 1.0;"/><polygon fill="#A80036" points="923.43,38.43,913.613,37.6383,918.7125,40.0868,916.264,45.1863,923.43,38.43" style="stroke: #A80036; stroke-width: 1.0;"/><path d="M740.956,306.969 C766.348,258.3 814.629,178.364 878,131.5 C891.153,121.77 907.205,114.61 922.665,109.4 " fill="none" style="stroke: #A80036; stroke-width: 1.0;"/><polygon fill="#A80036" points="927.44,107.85,917.6439,106.8323,922.6856,109.3977,920.1202,114.4394,927.44,107.85" style="stroke: #A80036; stroke-width: 1.0;"/><path d="M744.541,322.358 C773.421,291.593 825.095,240.638 878,208.5 C891.085,200.551 906.062,193.748 920.453,188.155 " fill="none" style="stroke: #A80036; stroke-width: 1.0;"/><polygon fill="#A80036" points="925.307,186.305,915.4724,185.7744,920.6352,188.0866,918.323,193.2493,925.307,186.305" style="stroke: #A80036; stroke-width: 1.0;"/><path d="M744.566,336.504 C774.958,321.275 829.664,294.681 878,275.5 C896.478,268.168 917.233,261.077 935.209,255.285 " fill="none" style="stroke: #A80036; stroke-width: 1.0;"/><polygon fill="#A80036" points="940.201,253.686,930.41,252.6196,935.4389,255.21,932.8485,260.2389,940.201,253.686" style="stroke: #A80036; stroke-width: 1.0;"/><path d="M744.948,345.085 C781.231,339.912 851.667,329.869 906.104,322.107 " fill="none" style="stroke: #A80036; stroke-width: 1.0;"/><polygon fill="#A80036" points="911.321,321.364,901.8465,318.6743,906.3711,322.0697,902.9757,326.5942,911.321,321.364" style="stroke: #A80036; stroke-width: 1.0;"/><path d="M744.948,351.915 C780.562,356.993 849.083,366.762 903.079,374.461 " fill="none" style="stroke: #A80036; stroke-width: 1.0;"/><polygon fill="#A80036" points="908.258,375.2,899.9127,369.9698,903.3081,374.4943,898.7835,377.8897,908.258,375.2" style="stroke: #A80036; stroke-width: 1.0;"/><path d="M744.626,360.49 C775.081,375.747 829.853,402.515 878,422.5 C894.152,429.204 912.004,435.891 928.222,441.699 " fill="none" style="stroke: #A80036; stroke-width: 1.0;"/><polygon fill="#A80036" points="933.199,443.472,926.0641,436.6828,928.4892,441.7935,923.3785,444.2185,933.199,443.472" style="stroke: #A80036; stroke-width: 1.0;"/><path d="M744.839,359.653 C765.735,370.217 796.106,387.559 818,408.5 C852.208,441.22 841.086,466.866 878,496.5 C888.449,504.889 900.836,511.753 913.322,517.301 " fill="none" style="stroke: #A80036; stroke-width: 1.0;"/><polygon fill="#A80036" points="917.924,519.285,911.2436,512.0481,913.3327,517.3051,908.0757,519.3941,917.924,519.285" style="stroke: #A80036; stroke-width: 1.0;"/><path d="M744.55,357.617 C766.434,367.207 798.499,384.289 818,408.5 C868.261,470.899 821.546,521.643 878,578.5 C887.557,588.125 899.8,595.261 912.476,600.547 " fill="none" style="stroke: #A80036; stroke-width: 1.0;"/><polygon fill="#A80036" points="917.161,602.412,910.2794,595.3662,912.5158,600.5622,907.3197,602.7985,917.161,602.412" style="stroke: #A80036; stroke-width: 1.0;"/><path d="M744.669,357.024 C766.958,366.275 799.594,383.201 818,408.5 C883.701,498.803 804.37,568.536 878,652.5 C886.1,661.737 896.599,668.857 907.781,674.341 " fill="none" style="stroke: #A80036; stroke-width: 1.0;"/><polygon fill="#A80036" points="912.61,676.593,906.1454,669.1627,908.0789,674.4789,902.7628,676.4124,912.61,676.593" style="stroke: #A80036; stroke-width: 1.0;"/></g></svg>